<svg xmlns="http://www.w3.org/2000/svg" viewBox="0 0 241.26 228.63"><defs><style>.cls-1{fill:#149fbc}.cls-2{fill:#fff}</style></defs><title>1</title><g id="Layer_2" data-name="Layer 2"><g id="Layer_1-2" data-name="Layer 1"><path id="_Rectangle_" data-name="&amp;lt;Rectangle&amp;gt;" class="cls-1" d="M51.06 0h190.2v228.63H0V51.06A51.06 51.06 0 0 1 51.06 0z"/><path class="cls-2" d="M33.31 35.18h22.9v50.47H43V46h-9.69z" id="_Group_" data-name="&amp;lt;Group&amp;gt;"/><path class="cls-2" d="M35.73 108.31h18.63V113h-6.51v17h-5.67v-17h-6.45zM71 114.78a6.5 6.5 0 0 1 1.66 4.68V130h-5.49v-9a3.18 3.18 0 0 0-.76-2.25 2.71 2.71 0 0 0-2.09-.82 3.08 3.08 0 0 0-2.4 1.07 4 4 0 0 0-.88 2.71V130h-5.53v-23H61v9a6 6 0 0 1 2.31-2.2 6.84 6.84 0 0 1 3.24-.74 5.86 5.86 0 0 1 4.45 1.72zm10.19-8.41a3.13 3.13 0 0 1 0 4.23 3 3 0 0 1-4.19 0 3.14 3.14 0 0 1 0-4.23 3.08 3.08 0 0 1 4.19 0zm-4.79 6.9h5.49V130H76.4zm25.19 1.51a6.5 6.5 0 0 1 1.66 4.68V130h-5.49v-9a3.14 3.14 0 0 0-.76-2.2 2.72 2.72 0 0 0-2.08-.82 3.19 3.19 0 0 0-2.25.9 3.65 3.65 0 0 0-1 2.29V130h-5.56v-16.73h5.52V116a6 6 0 0 1 2.31-2.2 6.84 6.84 0 0 1 3.24-.74 5.82 5.82 0 0 1 4.41 1.72zM117.91 130l-3.53-6.32-1.71 1.77V130h-5.52v-23h5.52v11.9l5.36-5.67h6.26l-6.14 6.48 6.27 10.29zm-63.36 14.23v23H49v-2.17a5.67 5.67 0 0 1-2.12 1.78 6.45 6.45 0 0 1-2.84.6 7.66 7.66 0 0 1-4.04-1.07 7.29 7.29 0 0 1-2.74-3.05 10.09 10.09 0 0 1-1-4.54 9.85 9.85 0 0 1 1-4.46 7.11 7.11 0 0 1 2.7-3 7.61 7.61 0 0 1 4-1.05 6.6 6.6 0 0 1 2.9.62 6.13 6.13 0 0 1 2.14 1.78v-8.43zM48 162a5.12 5.12 0 0 0 0-6.06 3.53 3.53 0 0 0-5.22 0 5 5 0 0 0 0 6 3.3 3.3 0 0 0 2.62 1.16A3.26 3.26 0 0 0 48 162zm15.71-18.43a3.13 3.13 0 0 1 0 4.23 3 3 0 0 1-4.19 0 3.14 3.14 0 0 1 0-4.23 3.08 3.08 0 0 1 4.19 0zm-4.79 6.9h5.49v16.77h-5.49zm16.71-1.62a1.68 1.68 0 0 0-.53 1.33v1.08h3.72v3.66H75.1v12.31h-5.48v-12.3h-2.27v-3.66h2.26v-1.55a5.25 5.25 0 0 1 1.78-4.2A6.76 6.76 0 0 1 76 144a10.32 10.32 0 0 1 3.6.65l-.71 4.19a6.3 6.3 0 0 0-1.86-.43 2 2 0 0 0-1.4.44zm12.37 0a1.68 1.68 0 0 0-.53 1.33v1.08h3.72v3.66h-3.72v12.31H82v-12.3h-2.28v-3.66H82v-1.55a5.25 5.25 0 0 1 1.78-4.2 6.76 6.76 0 0 1 4.56-1.52 10.32 10.32 0 0 1 3.6.65l-.71 4.19a6.3 6.3 0 0 0-1.86-.43 2 2 0 0 0-1.37.44zm18.63 3.85a9.49 9.49 0 0 1 2.2 6.63v1H97.14a4 4 0 0 0 1.4 2.19 3.86 3.86 0 0 0 2.42.76 5.24 5.24 0 0 0 2.09-.43 5.92 5.92 0 0 0 1.84-1.27l2.88 2.88a8.49 8.49 0 0 1-3.15 2.22 10.85 10.85 0 0 1-4.17.76 10 10 0 0 1-4.71-1.05 7.32 7.32 0 0 1-3.08-3 9 9 0 0 1-1.07-4.46 9.25 9.25 0 0 1 1.08-4.54 7.5 7.5 0 0 1 3.07-3 9.52 9.52 0 0 1 4.59-1.07 8.08 8.08 0 0 1 6.3 2.38zm-3.16 4.68a3.23 3.23 0 0 0-.85-2.34 3.24 3.24 0 0 0-4.43 0 4.32 4.32 0 0 0-1.19 2.34zm15.95-6.38a6.31 6.31 0 0 1 3.15-.77v5.05a8.33 8.33 0 0 0-.84 0 5.11 5.11 0 0 0-3.16.91 3.51 3.51 0 0 0-1.4 2.5v8.56h-5.52v-16.78h5.52v2.79a6 6 0 0 1 2.25-2.26zm19.23 1.7a9.49 9.49 0 0 1 2.2 6.63v1h-11.68a4 4 0 0 0 1.4 2.19 3.86 3.86 0 0 0 2.42.76 5.24 5.24 0 0 0 2.09-.43 5.92 5.92 0 0 0 1.84-1.27l2.88 2.88a8.49 8.49 0 0 1-3.15 2.22 10.85 10.85 0 0 1-4.17.76 10 10 0 0 1-4.71-1.05 7.32 7.32 0 0 1-3.08-3 9 9 0 0 1-1.07-4.46 9.25 9.25 0 0 1 1.08-4.54 7.5 7.5 0 0 1 3.07-3 9.52 9.52 0 0 1 4.59-1.07 8.08 8.08 0 0 1 6.29 2.38zm-3.16 4.68a3.23 3.23 0 0 0-.85-2.34 3.24 3.24 0 0 0-4.43 0 4.32 4.32 0 0 0-1.16 2.36zm23.67-5.38a6.5 6.5 0 0 1 1.66 4.68v10.57h-5.49v-9a3.14 3.14 0 0 0-.78-2.25 2.72 2.72 0 0 0-2.08-.82 3.19 3.19 0 0 0-2.25.9 3.65 3.65 0 0 0-1 2.29v8.87h-5.52v-16.77h5.52v2.73a6 6 0 0 1 2.31-2.2 6.84 6.84 0 0 1 3.24-.74 5.82 5.82 0 0 1 4.39 1.74zm16.32 14.37a8.28 8.28 0 0 1-2.14.82 10.31 10.31 0 0 1-2.45.29 5.66 5.66 0 0 1-4-1.43 5.11 5.11 0 0 1-1.53-3.94v-7.19H163v-3.66h2.32v-4.65h5.49v4.65h4.34v3.66h-4.34v6.32q0 1.77 1.46 1.77a5.38 5.38 0 0 0 2.14-.56zm2.79-22.14h5.52v23h-5.52zm16.37 28.14a6.79 6.79 0 0 1-4 1.13 7.9 7.9 0 0 1-2.6-.42 8.15 8.15 0 0 1-2.36-1.32l2.29-3.81a4.34 4.34 0 0 0 1.12.71 2.9 2.9 0 0 0 1.12.22 2.13 2.13 0 0 0 2-1.27l.4-.77-6.94-16.37h5.67l4 10.91 3.57-10.91h5.49l-7.19 18.41a7.64 7.64 0 0 1-2.57 3.49z" id="_Group_2" data-name="&amp;lt;Group&amp;gt;"/></g></g></svg>