<svg xmlns="http://www.w3.org/2000/svg" viewBox="0 0 241.26 228.63"><defs><style>.cls-1{fill:#149fbc}.cls-2{fill:#fff}</style></defs><title>1CH</title><g id="Layer_2" data-name="Layer 2"><g id="Layer_1-2" data-name="Layer 1"><path id="_Rectangle_" data-name="&amp;lt;Rectangle&amp;gt;" class="cls-1" d="M51.06 0h190.2v228.63H0V51.06A51.06 51.06 0 0 1 51.06 0z"/><path class="cls-2" d="M33.31 35.18h22.9v50.47H43V46h-9.69z" id="_Group_" data-name="&amp;lt;Group&amp;gt;"/><path class="cls-2" d="M64.09 108.56h-10q-.65 1.09-2 3V132h-2.53v-17.43q-3 4-10.29 8.07l-1.56-2a32.59 32.59 0 0 0 7.72-5 32.23 32.23 0 0 0 5.68-7.07H38.18v-2.37h25.91zm.2 12.58l-1.89 1.62a26 26 0 0 0-9.46-7.63l1.65-1.65a29 29 0 0 1 9.7 7.66zm29.56 6.76a4 4 0 0 1-.86 2.9q-.85.82-3.9.82h-1.53l-.84-2.62a20.65 20.65 0 0 0 3.92-.21q.77-.21.77-1.42v-19.5H72.62v24.46h-2.44v-26.69h23.67zm-3.41-14.36H74.11v-2.26h16.34zm-2.51 12.71h-11.8V117h11.8zM85.59 124v-4.78h-7.1V124zm20.41-.68a17.07 17.07 0 0 1-4.95 6.34L99.2 128a13 13 0 0 0 4.89-6zm16.27-3.84h-18.84v-13.62h18.88zm-10.63-8v-3.35h-5.84v3.35zm0 5.74v-3.47h-5.84v3.47zm8.58 8q-.18 3.09-1.35 4.34a3.55 3.55 0 0 1-2.64 1.25h-6.53q-2.79 0-2.79-2.57v-5.83h2.35v5.12q0 1 1.15 1H116a1.57 1.57 0 0 0 1.45-.8 6.71 6.71 0 0 0 .54-3zm-4-.71l-2.07 1.36a10.35 10.35 0 0 0-4.59-4.42l1.76-1.33a10.05 10.05 0 0 1 4.92 4.33zm3.72-13v-3.35H114v3.35zm0 5.74v-3.47H114v3.47zM126.5 128l-2.1 1.3a13.7 13.7 0 0 0-5.12-6l1.83-1.41a15.35 15.35 0 0 1 5.39 6.11zm14.56-6.64q-6.12 1.5-9.35 2.5l-1.12-2.07a34.47 34.47 0 0 0 4.44-5.15q-1.8.44-3.38.94l-1.18-2.12a74 74 0 0 0 5.21-11.1l2.1 1q-2.69 6.19-4.5 9.42l3.25-.68a32.57 32.57 0 0 0 2.09-3.71l2.16 1q-3.18 6.49-6.51 9.46l.06.06 6.72-1.65zm0 5l-9.29 3.31-1.18-2.13q3.24-.94 10.47-3.5zm16 3.88h-13V132h-2.36v-16.3h-.09a5.42 5.42 0 0 1-1.42 2l-2.07-1.21a26 26 0 0 0 5.77-12.06l2.16.85-1.33 4.59h11.44v2.26h-5.59v3.48h5.3v2.26h-5.3v3.69h5.3v2.26h-5.3V128H157zm-8.79-14.68v-3.48h-4.16v3.48zm0 5.95v-3.69h-4.16v3.69zm0 6.48v-4.22h-4.16V128zm4.27-19.84l-2.07 1.33a10.54 10.54 0 0 0-3.1-4.15l2-1.21a13.42 13.42 0 0 1 3.14 4.03z" id="_Group_2" data-name="&amp;lt;Group&amp;gt;"/></g></g></svg>