<svg xmlns="http://www.w3.org/2000/svg" viewBox="0 0 241.26 228.63"><defs><style>.cls-1{fill:#077183}.cls-2{fill:#fff}</style></defs><title>2CH</title><g id="Layer_2" data-name="Layer 2"><g id="Layer_1-2" data-name="Layer 1"><path id="_Rectangle_" data-name="&amp;lt;Rectangle&amp;gt;" class="cls-1" d="M0 0h241.26v228.63H0z"/><path class="cls-2" d="M79 75.06v10.59H40.59l-.07-8.71 18.36-18.87a26 26 0 0 0 3.53-4.46 7.69 7.69 0 0 0 1.37-3.82 3.74 3.74 0 0 0-1.51-3.2A7 7 0 0 0 58 45.47a16.43 16.43 0 0 0-6.73 1.69 29.51 29.51 0 0 0-7.16 4.72l-5-9.72Q49.52 34.6 60 34.6a23.43 23.43 0 0 1 9 1.66 14.61 14.61 0 0 1 6.26 4.68 11.22 11.22 0 0 1 2.27 6.91 15.29 15.29 0 0 1-2.56 8 49.94 49.94 0 0 1-7.24 8.82L57.51 75.06z" id="_Group_" data-name="&amp;lt;Group&amp;gt;"/><path class="cls-2" d="M55.9 115.28l-1.62 1.92a30.81 30.81 0 0 0-2-2.42 60.77 60.77 0 0 1-.48 8.26 3.78 3.78 0 0 1-1.12 2.06 2.65 2.65 0 0 1-1.77.67 11.29 11.29 0 0 1-2.54-.61q-.21-1.06-.47-2.53a7.54 7.54 0 0 0 2.42.77q.89 0 1.19-1.19a30.37 30.37 0 0 0 .3-5.52h-5.65v11.11q0 .8.59.8h7.55a.79.79 0 0 0 .64-.36 1.47 1.47 0 0 0 .3-.79l.12-2.42 2.32 1.33q-.27 4.31-2.63 4.31h-8.92a2.11 2.11 0 0 1-2.36-2.42V115.9a16.78 16.78 0 0 1-3 2.1l-1.48-2.07q6.21-2.77 9.11-11.84l2 .92-.74 2.51a33.17 33.17 0 0 1 8.24 7.76zm-3.81-.89a30.36 30.36 0 0 0-5.21-5.06 20 20 0 0 1-3.63 5.12zm6.78 10.78h-2.35v-16.08h2.35zm4.81 4.63a2 2 0 0 1-.63 1.56 1.94 1.94 0 0 1-1.32.58h-3.34l-.71-2.33 3.15.17q.5 0 .5-1v-24.4h2.36zm32.64-1.56l-.92 2.48H80.76a12.38 12.38 0 0 1-6.87-2.79l-4.16 3.41-1.73-1.83a35.68 35.68 0 0 0 5.15-3.87v-8.52H69v-2.27h6.42v11.41A8.37 8.37 0 0 0 78 128a7.43 7.43 0 0 0 2.71.44zM76.58 110l-2 1.54a13.18 13.18 0 0 0-4-5.18l1.94-1.36a16.35 16.35 0 0 1 4.06 5zm18.6 6.54H77v-2.26h7.86v-3.66h-3.69a13 13 0 0 1-2.51 2.92l-2-1.56a11.53 11.53 0 0 0 4.15-6.54l2.21.77a15.89 15.89 0 0 1-.65 2.13h2.51v-4.04h2.35v4.09h5.89v2.27h-5.94v3.66h8zm-2.51 10.76h-2.36v-1.53h-8.9v1.53h-2.35v-9.49h13.61zm-2.36-3.78v-3.44h-8.9v3.44zM108.85 105a34 34 0 0 1-1.59 5l-1.17 3v19.18h-2.36v-15a26 26 0 0 1-2.54 3L99 118.79a30.14 30.14 0 0 0 7.61-14.64zm19.59 10.64l-1.86 2q-5.1-2.48-9.55-9.43a22.94 22.94 0 0 1-9.14 9.37l-1.67-1.92q6.86-3.13 10.47-11.82l2 1.15-.36.91q4.07 6.96 10.11 9.73zm-14 5.74a11.74 11.74 0 0 1-1.45 6.1 16.6 16.6 0 0 1-5 4.87l-1.76-2a12.29 12.29 0 0 0 4.19-3.48 7.06 7.06 0 0 0 1.7-4.27v-7.69h2.35zm7.7 10.62h-2.34v-17.05h2.35zm36.09-1.13h-20.56v-2.26h2.68v-17.24h5.24a15.93 15.93 0 0 0 .89-2.36h-8.16v-1.6a30.42 30.42 0 0 1-1.1 3.35l-.71 1.74v19.65h-2.36V116.7a17.38 17.38 0 0 1-2 2.48l-1.92-1.33a29.17 29.17 0 0 0 6.54-13.61l2.13.74q-.09.65-.36 1.77h8.61a15 15 0 0 0 .24-2.57l2.39.41a9.19 9.19 0 0 1-.24 2.16h7.69V109H149q-.21.74-.86 2.36h7v17.24h3zm-5.39-15.33v-1.89H142.7v1.89zm0 4.15v-2.16H142.7v2.16zm0 4.34v-2.3H142.7V124zm0 4.59V126H142.7v2.57z" id="_Group_2" data-name="&amp;lt;Group&amp;gt;"/></g></g></svg>