<svg xmlns="http://www.w3.org/2000/svg" viewBox="0 0 241.26 228.63"><defs><style>.cls-1{fill:#094f5e}.cls-2{fill:#fff}</style></defs><title>3</title><g id="Layer_2" data-name="Layer 2"><g id="Layer_1-2" data-name="Layer 1"><path id="_Rectangle_" data-name="&amp;lt;Rectangle&amp;gt;" class="cls-1" d="M0 0h241.26v228.63H0z"/><path class="cls-2" d="M69.86 60.41a12.5 12.5 0 0 1 3.71 9.32 15 15 0 0 1-2.52 8.57 16.6 16.6 0 0 1-7.13 5.83 25.94 25.94 0 0 1-10.8 2.09 36.07 36.07 0 0 1-10.91-1.69 29.17 29.17 0 0 1-9-4.5l4.9-9.29a23.37 23.37 0 0 0 6.77 4 20.13 20.13 0 0 0 7.12 1.4 10.8 10.8 0 0 0 6.41-1.62 5.39 5.39 0 0 0 2.23-4.64 5.3 5.3 0 0 0-2.23-4.61A11.14 11.14 0 0 0 52 63.69h-8.5v-7.2l11.64-11.23h-19.3V35.18h35.28v7.63l-13.75 12.6 2.66.5a17 17 0 0 1 9.83 4.5z" id="_Group_" data-name="&amp;lt;Group&amp;gt;"/><path class="cls-2" d="M59.06 108.31h5.83L57.54 130h-5.83l-4.12-14.79L43.41 130h-5.83l-7.32-21.73h6.11l4.28 15.87 4.28-15.87h5.55l4.34 15.87zm12.66-1.94a3.14 3.14 0 0 1 0 4.23 3 3 0 0 1-4.18 0 3.13 3.13 0 0 1 0-4.23 3.07 3.07 0 0 1 4.18 0zm-4.79 6.9h5.49V130h-5.48zm25.19 1.51a6.5 6.5 0 0 1 1.66 4.68V130h-5.49v-9a3.15 3.15 0 0 0-.77-2.25 2.72 2.72 0 0 0-2.08-.82 3.19 3.19 0 0 0-2.25.9 3.66 3.66 0 0 0-1 2.29V130h-5.55v-16.73h5.52V116a6 6 0 0 1 2.31-2.2 6.84 6.84 0 0 1 3.23-.8 5.83 5.83 0 0 1 4.42 1.78zm9.01 1.68a2.6 2.6 0 0 1 .74 1.92 2.65 2.65 0 0 1-.74 1.94 2.57 2.57 0 0 1-1.92.76 2.54 2.54 0 0 1-1.89-.76 2.9 2.9 0 0 1 0-3.86 2.55 2.55 0 0 1 1.91-.74 2.6 2.6 0 0 1 1.9.74zm0 9.21a2.6 2.6 0 0 1 .74 1.92 2.65 2.65 0 0 1-.74 1.94 2.57 2.57 0 0 1-1.92.76 2.53 2.53 0 0 1-1.89-.76 2.9 2.9 0 0 1 0-3.86 2.55 2.55 0 0 1 1.91-.74 2.6 2.6 0 0 1 1.9.74zm30.63-17.36h5.83L130.24 130h-5.83l-4.12-14.79L116.1 130h-5.83L103 108.31h6.11l4.28 15.87 4.28-15.87h5.55l4.34 15.87zm12.66-1.94a3.14 3.14 0 0 1 0 4.23 3 3 0 0 1-4.18 0 3.13 3.13 0 0 1 0-4.23 3.07 3.07 0 0 1 4.18 0zm-4.79 6.9h5.49V130h-5.49zm25.19 1.51a6.5 6.5 0 0 1 1.66 4.68V130H161v-9a3.15 3.15 0 0 0-.77-2.25 2.72 2.72 0 0 0-2.08-.82 3.19 3.19 0 0 0-2.25.9 3.66 3.66 0 0 0-1 2.29V130h-5.52v-16.73h5.52V116a6 6 0 0 1 2.31-2.2 6.84 6.84 0 0 1 3.24-.74 5.83 5.83 0 0 1 4.37 1.72z" id="_Group_2" data-name="&amp;lt;Group&amp;gt;"/></g></g></svg>