<svg xmlns="http://www.w3.org/2000/svg" viewBox="0 0 241.26 228.63"><defs><style>.cls-1{fill:#8951a0}.cls-2{fill:#fff}</style></defs><title>4CH</title><g id="Layer_2" data-name="Layer 2"><g id="Layer_1-2" data-name="Layer 1"><path id="_Rectangle_" data-name="&amp;lt;Rectangle&amp;gt;" class="cls-1" d="M0 0h241.26v228.63H0z"/><path class="cls-2" d="M78.91 60.25v10h-6.48v10.88h-12.1V70.26H37.51v-8.93l14.33-30.67h12.52L50.9 60.25h9.43V49.52h12.1v10.73z" id="_Group_" data-name="&amp;lt;Group&amp;gt;"/><path class="cls-2" d="M46.37 98.47a34 34 0 0 1-1.59 5l-1.17 3v19.18h-2.36v-15a26 26 0 0 1-2.54 3l-2.16-1.36a30.14 30.14 0 0 0 7.61-14.64zM66 109.11l-1.86 2q-5.1-2.48-9.55-9.43A22.94 22.94 0 0 1 45.4 111l-1.67-1.92q6.86-3.13 10.47-11.82l2 1.15-.36.91q4.08 7.02 10.16 9.79zm-14 5.74a11.74 11.74 0 0 1-1.45 6.1 16.6 16.6 0 0 1-5 4.87l-1.76-2a12.29 12.29 0 0 0 4.19-3.48 7.06 7.06 0 0 0 1.7-4.27v-7.69H52zm7.69 10.66h-2.38v-17.08h2.35zm36.05-1.16H75.19v-2.25h2.68v-17.24h5.24a16.1 16.1 0 0 0 .89-2.36h-8.16v-1.6a30.54 30.54 0 0 1-1.1 3.35L74 106v19.65h-2.37v-15.47a17.38 17.38 0 0 1-2 2.48l-1.92-1.33a29.17 29.17 0 0 0 6.54-13.61l2.13.74q-.09.65-.36 1.77h8.61a15 15 0 0 0 .24-2.57l2.39.41a9.19 9.19 0 0 1-.24 2.16h7.69v2.26h-8.17q-.21.74-.86 2.36h7v17.25h3zM90.36 109v-1.89H80.21V109zm0 4.15V111H80.21v2.16zm0 4.34v-2.3H80.21v2.3zm0 4.59v-2.57H80.21v2.57zm36.7-.57l-1.15 2.49q-1.47.06-3.47.06a61.63 61.63 0 0 1-11.08-.67 11.29 11.29 0 0 1-5.92-3.64 16.4 16.4 0 0 1-4.74 5.86l-1.92-2q5.9-3.42 5.68-12.37l2.32.53a34.6 34.6 0 0 1-.51 5.48 9.53 9.53 0 0 0 5.83 3.81v-11.71h-8.16v-2.25h18.32v2.26h-7.81v4.59h9.34v2.27h-9.34v5.24l3.72.12zm-1.71-14.23h-2.42v-3.88H103v3.69h-2.36v-6h11.16v-3.18h2.36v3.22h11.16zM139.34 99a35.86 35.86 0 0 1-1.38 4l-1.1 2.77v20h-2.36v-16a27.74 27.74 0 0 1-2.6 3.16l-2.1-1.53q4.63-4.54 7.31-13.52zm18.53 24.82h-19.41v-2.26h8.37q4.59-8 4.9-14.61l2.48.65a41.91 41.91 0 0 1-4.75 14h8.4zm-1.45-17.35h-17.28v-2.24h7.3v-6.15h2.41v6.13h7.57zm-9.64 12.93l-2.51.48a22.58 22.58 0 0 0-3.35-11.37l2.48-.53a26.64 26.64 0 0 1 3.37 11.39z" id="_Group_2" data-name="&amp;lt;Group&amp;gt;"/></g></g></svg>