<svg xmlns="http://www.w3.org/2000/svg" viewBox="0 0 241.26 228.63"><defs><style>.cls-1{fill:#633570}.cls-2{fill:#fff}</style></defs><title>5CH</title><g id="Layer_2" data-name="Layer 2"><g id="Layer_1-2" data-name="Layer 1"><path id="_Rectangle_" data-name="&amp;lt;Rectangle&amp;gt;" class="cls-1" d="M0 0h241.26v228.63H0z"/><path class="cls-2" d="M70.43 50.89a15.88 15.88 0 0 1 6.84 5.4 13.5 13.5 0 0 1 2.41 7.92 16.8 16.8 0 0 1-2.52 9.22A16.46 16.46 0 0 1 70 79.55a25.71 25.71 0 0 1-10.87 2.16A33.85 33.85 0 0 1 48.69 80a37.7 37.7 0 0 1-9.54-4.54l4.9-9.5q7 5.62 13.61 5.62a9 9 0 0 0 5.83-1.69 5.65 5.65 0 0 0 2.09-4.64 5.29 5.29 0 0 0-2.05-4.5q-2.05-1.55-6.16-1.55-9.58 0-13.82.29V30.66h33.9v10.58H55.64v7.7h4.54a25.32 25.32 0 0 1 10.25 1.95z" id="_Group_" data-name="&amp;lt;Group&amp;gt;"/><path class="cls-2" d="M47.61 117.93l-8.76 3.6-2-1.86q1.59-.47 4.68-1.63v-7.14h-3.18v-2.26h3.13v-6h-3.75v-2.27h9.61v2.27h-3.5v6h3.06v2.26h-3.05v6.24q2.53-1.06 3.77-1.51zM65 124H46.19v-2.27h8.19v-3.53h-6.2V116h6.21v-3H48V99.5h15.11V113h-6.37v3h6.16v2.27h-6.16v3.53H65zm-10.62-19v-3.25h-4.06V105zm0 5.77v-3.5h-4.06v3.5zm6.48-9h-4.12V105h4.06zm-.09 9v-3.5h-4v3.5zm35.8-3.4l-1.42 2.13a42.53 42.53 0 0 1-7.35-3.5v1.92H75.89v-2a29.73 29.73 0 0 1-6.63 3.78l-1.62-2a28.18 28.18 0 0 0 13.71-10.41l2.16.91-.53.74q4.44 5.52 13.59 8.43zm-22.1 12a13 13 0 0 1-4.71 5.54l-1.83-1.74a11.93 11.93 0 0 0 4.68-5.27zm15.94-6.89q-2 3.25-7 4.92l-1.33-1.82a15.64 15.64 0 0 0 5-2.86H73.35v-2.35h17.06zm-.59 8.52a7.53 7.53 0 0 1-1.36 3.46 2.92 2.92 0 0 1-2.21.85h-7.94a1.89 1.89 0 0 1-1.55-.73 2.63 2.63 0 0 1-.58-1.7v-5.09h2.44v4.62q0 .62.65.62h6.68q1.3.18 1.51-3.28zm-2.64-15.4a23.61 23.61 0 0 1-5.56-4.8 35.52 35.52 0 0 1-5.21 4.8zm-1.89 13.9l-1.89 1.6a14.66 14.66 0 0 0-4.71-4.53l1.82-1.33a17.82 17.82 0 0 1 4.78 4.25zm11.1 3.31l-2 1.6a14.25 14.25 0 0 0-4.62-5.33l1.89-1.36a15.87 15.87 0 0 1 4.73 5.09zM117 112h-3.72v13.58h-2.36V112h-4.06q-.09 5.77-1.5 8.69a13.78 13.78 0 0 1-3.89 4.89l-1.92-1.67q5.3-4.06 4.92-11.91h-4v-2.26h4.07v-8.22h-3.22v-2.25h15.15v2.27h-3.16v8.22H117zm-6.08-2.26v-8.22h-4.06v8.22zm16.4 6.26a25.23 25.23 0 0 1-10.85 9.61l-1.8-1.74q7.42-3.37 10.82-9.2zM126 99.18a20.25 20.25 0 0 1-9 7.95l-1.77-1.74a21 21 0 0 0 8.93-7.54zm.39 8.34q-2.85 5-9.32 8.07l-1.8-1.74q6.55-3 9.34-7.66zm31.61 12.1a15.56 15.56 0 0 1-1.63 5.25 1.58 1.58 0 0 1-1.36.64q-1.3 0-3.28-2.21a16.27 16.27 0 0 1-2.9-4.36 30.71 30.71 0 0 1-6.27 5.21l-2.13-1.65a24.53 24.53 0 0 0 7.28-5.8 42.57 42.57 0 0 1-2.35-11.43h-9.31v4.21h8.28a34.85 34.85 0 0 1-1 8.52 3.17 3.17 0 0 1-3.31 2.33 17.83 17.83 0 0 1-2.51-.24l-1-2.57a12.69 12.69 0 0 0 3.66.59q1.08 0 1.38-1.87a32.41 32.41 0 0 0 .37-4.49H136q-.13 6.53-1.16 9.37a13.86 13.86 0 0 1-2.63 4.63l-2-1.48q3.3-3.36 3.36-10.47l.09-10.79h11.43q-.15-3.68-.15-5.24h2.33q0 3.39.18 5.24h9.05v2.27h-8.9a35.25 35.25 0 0 0 1.83 9.35 28.72 28.72 0 0 0 4-7.72l2.15.71a32.32 32.32 0 0 1-5.09 9.49 31.22 31.22 0 0 0 2.46 4q1.31 1.79 1.94 1.79.2 0 .48-1.62a19.68 19.68 0 0 0 .32-3zM156.08 101l-1.67 1.45a11.67 11.67 0 0 0-6-2.75l1.85-1.7a12.62 12.62 0 0 1 5.82 3z" id="_Group_2" data-name="&amp;lt;Group&amp;gt;"/></g></g></svg>