<svg xmlns="http://www.w3.org/2000/svg" viewBox="0 0 241.26 228.63"><defs><style>.cls-1{fill:#43214e}.cls-2{fill:#fff}</style></defs><title>6</title><g id="Layer_2" data-name="Layer 2"><g id="Layer_1-2" data-name="Layer 1"><path id="_Rectangle_" data-name="&amp;lt;Rectangle&amp;gt;" class="cls-1" d="M0 0h241.26v228.63H0z"/><path class="cls-2" d="M62.7 40.92a19 19 0 0 0-5.58-.83q-5.83 0-8.75 3.49t-2.77 9.76q3.82-5.4 11.74-5.4A16.93 16.93 0 0 1 65.8 50a14.12 14.12 0 0 1 5.62 5.76 18 18 0 0 1 2 8.6 17.8 17.8 0 0 1-2.3 9.18 15.42 15.42 0 0 1-6.52 6 21.39 21.39 0 0 1-9.76 2.12 21.11 21.11 0 0 1-11.45-3A19.55 19.55 0 0 1 36 70a31.62 31.62 0 0 1-2.59-13.28 32.66 32.66 0 0 1 2.84-14 21.58 21.58 0 0 1 8-9.32 22.16 22.16 0 0 1 12.1-3.28 33.34 33.34 0 0 1 8.53 1.15 29.71 29.71 0 0 1 7.52 3l-4.9 9.07a15.24 15.24 0 0 0-4.8-2.42zM48.95 59.35a7.51 7.51 0 0 0-.11 10 7.25 7.25 0 0 0 5.47 1.94 7.45 7.45 0 0 0 5.33-1.84 6.83 6.83 0 0 0 1.94-5.22 6.79 6.79 0 0 0-1.87-5.08 7.09 7.09 0 0 0-5.18-1.84 7.55 7.55 0 0 0-5.58 2.04z" id="_Group_" data-name="&amp;lt;Group&amp;gt;"/><path class="cls-2" d="M32.43 101.79h5.67v21.73h-5.67zm25.38 6.48a6.5 6.5 0 0 1 1.66 4.68v10.57H54v-9a3.15 3.15 0 0 0-.77-2.25 2.72 2.72 0 0 0-2.08-.82 3.19 3.19 0 0 0-2.25.9 3.66 3.66 0 0 0-1 2.29v8.87h-5.58v-16.76h5.52v2.73a6 6 0 0 1 2.31-2.2 6.84 6.84 0 0 1 3.24-.74 5.83 5.83 0 0 1 4.42 1.73zm20.89 0a6.5 6.5 0 0 1 1.66 4.68v10.57h-5.49v-9a3.15 3.15 0 0 0-.77-2.25 2.72 2.72 0 0 0-2.08-.82 3.19 3.19 0 0 0-2.25.9 3.66 3.66 0 0 0-1 2.29v8.87h-5.56v-16.76h5.52v2.73a6 6 0 0 1 2.31-2.2 6.84 6.84 0 0 1 3.24-.74 5.83 5.83 0 0 1 4.42 1.73zm18-.64a7.82 7.82 0 0 1 3.22 3 9.38 9.38 0 0 1 0 9 7.82 7.82 0 0 1-3.22 3 11.33 11.33 0 0 1-9.61 0 7.71 7.71 0 0 1-3.21-3 9.49 9.49 0 0 1 0-9 7.71 7.71 0 0 1 3.21-3 11.33 11.33 0 0 1 9.61 0zm-7.41 4.54a4.43 4.43 0 0 0-1 3 4.48 4.48 0 0 0 1 3 3.28 3.28 0 0 0 2.6 1.15 3.31 3.31 0 0 0 2.64-1.15 4.48 4.48 0 0 0 1-3 4.39 4.39 0 0 0-1-3 3.33 3.33 0 0 0-2.64-1.17 3.28 3.28 0 0 0-2.6 1.17zm11.81-5.42h5.67l3.5 11.66 3.53-11.66h5.52L113 123.52h-5.67zm32.58 1.38a5.58 5.58 0 0 1 2 4.48v10.91h-5.48v-1.89a6 6 0 0 1-5.05 2.14 5.89 5.89 0 0 1-4.2-1.44 5 5 0 0 1-1.54-3.8 4.5 4.5 0 0 1 1.66-3.72 7.56 7.56 0 0 1 4.76-1.36h4.37v-.19a2.23 2.23 0 0 0-.82-1.86 3.75 3.75 0 0 0-2.37-.65 9.58 9.58 0 0 0-2.37.34 14.11 14.11 0 0 0-2.65 1l-1.52-3.72a21.82 21.82 0 0 1 3.92-1.38 16.65 16.65 0 0 1 3.89-.45 8.22 8.22 0 0 1 5.4 1.59zM129 119.41a2.62 2.62 0 0 0 1.18-1.57v-1.46h-3.29q-2.32 0-2.32 1.74a1.71 1.71 0 0 0 .6 1.38 2.49 2.49 0 0 0 1.66.51 3.9 3.9 0 0 0 2.17-.6zm21.26 3.24a8.29 8.29 0 0 1-2.14.82 10.31 10.31 0 0 1-2.45.29 5.66 5.66 0 0 1-4-1.43 5.11 5.11 0 0 1-1.54-3.94v-7.19h-2.33v-3.66h2.33v-4.64h5.49v4.65H150v3.66h-4.34v6.32q0 1.77 1.46 1.77a5.38 5.38 0 0 0 2.14-.56zm7.43-22.8a3.14 3.14 0 0 1 0 4.23 3 3 0 0 1-4.18 0 3.13 3.13 0 0 1 0-4.23 3.07 3.07 0 0 1 4.18 0zm-4.79 6.9h5.49v16.77h-5.49zm22.29.88a7.82 7.82 0 0 1 3.22 3 9.38 9.38 0 0 1 0 9 7.82 7.82 0 0 1-3.22 3 11.33 11.33 0 0 1-9.61 0 7.71 7.71 0 0 1-3.21-3 9.49 9.49 0 0 1 0-9 7.71 7.71 0 0 1 3.21-3 11.33 11.33 0 0 1 9.61 0zm-7.41 4.54a4.43 4.43 0 0 0-1 3 4.48 4.48 0 0 0 1 3 3.28 3.28 0 0 0 2.6 1.15 3.31 3.31 0 0 0 2.64-1.15 4.48 4.48 0 0 0 1-3 4.39 4.39 0 0 0-1-3 3.33 3.33 0 0 0-2.62-1.15 3.28 3.28 0 0 0-2.62 1.15zm30.08-3.9a6.5 6.5 0 0 1 1.66 4.68v10.57H194v-9a3.15 3.15 0 0 0-.77-2.25 2.72 2.72 0 0 0-2.08-.82 3.19 3.19 0 0 0-2.25.9 3.66 3.66 0 0 0-1 2.29v8.87h-5.52v-16.76h5.52v2.73a6 6 0 0 1 2.31-2.2 6.84 6.84 0 0 1 3.24-.74 5.83 5.83 0 0 1 4.41 1.73z" id="_Group_2" data-name="&amp;lt;Group&amp;gt;"/></g></g></svg>