<svg xmlns="http://www.w3.org/2000/svg" viewBox="0 0 241.26 228.63"><defs><style>.cls-1{fill:#f68b1f}.cls-2{fill:#fff}</style></defs><title>8</title><g id="Layer_2" data-name="Layer 2"><g id="Layer_1-2" data-name="Layer 1"><path id="_Rectangle_" data-name="&amp;lt;Rectangle&amp;gt;" class="cls-1" d="M0 0h241.26v228.63H0z"/><path class="cls-2" d="M71.62 34.31a11.93 11.93 0 0 1 4.82 10 11.58 11.58 0 0 1-1.62 5.94 12.41 12.41 0 0 1-4.36 4.43 14.72 14.72 0 0 1 6.26 5.22 13.3 13.3 0 0 1 2.3 7.6 12.75 12.75 0 0 1-2.48 7.81 15.64 15.64 0 0 1-7.09 5.15 29.38 29.38 0 0 1-10.73 1.8A29.08 29.08 0 0 1 48 80.42a16.13 16.13 0 0 1-7.09-5.08 12.21 12.21 0 0 1-2.52-7.67 12.92 12.92 0 0 1 2.52-7.74 15.76 15.76 0 0 1 6.7-5.29A14.07 14.07 0 0 1 42.82 50a11.23 11.23 0 0 1-1.8-6 11.83 11.83 0 0 1 2.16-7.06 13.61 13.61 0 0 1 6.16-4.64 24.7 24.7 0 0 1 9.32-1.62q8.14-.08 12.96 3.63zM52.87 61.67a6.28 6.28 0 0 0 0 9.29 9.28 9.28 0 0 0 5.87 1.62 9.45 9.45 0 0 0 5.9-1.58 6.21 6.21 0 0 0 0-9.29A9.45 9.45 0 0 0 58.73 60a9.28 9.28 0 0 0-5.86 1.67zm.86-20.77A5 5 0 0 0 52 45a4.81 4.81 0 0 0 1.76 4 7.86 7.86 0 0 0 5 1.4 7.84 7.84 0 0 0 5-1.4 4.86 4.86 0 0 0 1.73-4 5 5 0 0 0-1.73-4.1 7.7 7.7 0 0 0-5-1.44 7.73 7.73 0 0 0-5.03 1.44z" id="_Group_" data-name="&amp;lt;Group&amp;gt;"/><path class="cls-2" d="M37.83 103.31h16.24v4.53H43.5v4.84h9.73v4.53H43.5V125h-5.67zm23.6-1.94a3.13 3.13 0 0 1 0 4.23 3 3 0 0 1-4.19 0 3.14 3.14 0 0 1 0-4.23 3.07 3.07 0 0 1 4.19 0zm-4.79 6.9h5.49V125h-5.49zm25.19 1.52a6.5 6.5 0 0 1 1.66 4.68V125H78v-9a3.14 3.14 0 0 0-.78-2.25 2.72 2.72 0 0 0-2.08-.82 3.18 3.18 0 0 0-2.25.9 3.65 3.65 0 0 0-1 2.29V125h-5.55v-16.73h5.52V111a6 6 0 0 1 2.31-2.2 6.84 6.84 0 0 1 3.24-.74 5.82 5.82 0 0 1 4.42 1.73zm22.34-7.79v23h-5.52v-2.17a5.66 5.66 0 0 1-2.12 1.78 6.45 6.45 0 0 1-2.84.6 7.66 7.66 0 0 1-4.09-1.08 7.29 7.29 0 0 1-2.74-3.05 10.09 10.09 0 0 1-1-4.54 9.85 9.85 0 0 1 1-4.46 7.1 7.1 0 0 1 2.7-3 7.61 7.61 0 0 1 4-1.05 6.6 6.6 0 0 1 2.9.62 6.14 6.14 0 0 1 2.19 1.77V102zm-6.51 17.72a5.12 5.12 0 0 0 0-6.06 3.53 3.53 0 0 0-5.22 0 5 5 0 0 0 0 6 3.3 3.3 0 0 0 2.62 1.16 3.26 3.26 0 0 0 2.6-1.07zm15.67-18.35a3.13 3.13 0 0 1 0 4.23 3 3 0 0 1-4.19 0 3.14 3.14 0 0 1 0-4.23 3.07 3.07 0 0 1 4.19 0zm-4.79 6.9H114V125h-5.49zm25.18 1.52a6.5 6.5 0 0 1 1.66 4.68V125h-5.49v-9a3.15 3.15 0 0 0-.77-2.25A2.72 2.72 0 0 0 127 113a3.19 3.19 0 0 0-2.25.9 3.66 3.66 0 0 0-1 2.29V125h-5.52v-16.73h5.52V111a6 6 0 0 1 2.31-2.2 6.84 6.84 0 0 1 3.24-.74 5.83 5.83 0 0 1 4.42 1.73zm21.47-1.52v15.28a7.27 7.27 0 0 1-1.15 4.08 7.44 7.44 0 0 1-3.21 2.7 11.32 11.32 0 0 1-4.76.95 14 14 0 0 1-4.06-.59 12.89 12.89 0 0 1-3.44-1.58l1.92-3.81a9.85 9.85 0 0 0 2.51 1.2 8.67 8.67 0 0 0 2.7.43 4.59 4.59 0 0 0 2.94-.87 2.86 2.86 0 0 0 1.08-2.36v-1.8a5.64 5.64 0 0 1-4.77 2.2 6.73 6.73 0 0 1-6.25-3.86 9.41 9.41 0 0 1-.91-4.23 9.3 9.3 0 0 1 .88-4.15 6.62 6.62 0 0 1 2.5-2.79 6.84 6.84 0 0 1 3.66-1 6.67 6.67 0 0 1 2.81.57 5.46 5.46 0 0 1 2.09 1.66v-2zM148.77 119a4.18 4.18 0 0 0 .93-2.82 4.23 4.23 0 0 0-.93-2.85 3.31 3.31 0 0 0-4.91 0 4.2 4.2 0 0 0-.95 2.84 4.13 4.13 0 0 0 .95 2.82 3.11 3.11 0 0 0 2.46 1.08 3.07 3.07 0 0 0 2.45-1.07zM44.83 143.86a1.68 1.68 0 0 0-.53 1.33v1.08H48v3.66h-3.7v12.31h-5.48v-12.31h-2.27v-3.66h2.26v-1.55a5.25 5.25 0 0 1 1.78-4.2 6.76 6.76 0 0 1 4.58-1.52 10.31 10.31 0 0 1 3.6.65l-.71 4.18a6.3 6.3 0 0 0-1.86-.43 2 2 0 0 0-1.37.46zm22.1 1.61v16.77h-5.51v-2.73a5.89 5.89 0 0 1-5.36 3 5.66 5.66 0 0 1-4.36-1.75 6.58 6.58 0 0 1-1.63-4.67v-10.6h5.52v9a3.21 3.21 0 0 0 .73 2.23 2.52 2.52 0 0 0 2 .81 2.87 2.87 0 0 0 2.29-1.07 4.19 4.19 0 0 0 .84-2.71v-8.28zm19.7 1.53a6.5 6.5 0 0 1 1.66 4.68v10.57h-5.48v-9A3.14 3.14 0 0 0 82 151a2.72 2.72 0 0 0-2.08-.82 3.18 3.18 0 0 0-2.25.9 3.65 3.65 0 0 0-1 2.29v8.87h-5.52v-16.77h5.52v2.73A6 6 0 0 1 79 146a6.84 6.84 0 0 1 3.24-.74 5.82 5.82 0 0 1 4.39 1.74zm22.37-7.76v23h-5.52v-2.17a5.66 5.66 0 0 1-2.12 1.78 6.45 6.45 0 0 1-2.84.6 7.66 7.66 0 0 1-4.09-1.08 7.29 7.29 0 0 1-2.74-3.05 10.09 10.09 0 0 1-1-4.54 9.85 9.85 0 0 1 1-4.46 7.1 7.1 0 0 1 2.7-3 7.61 7.61 0 0 1 4-1.05 6.6 6.6 0 0 1 2.9.62 6.14 6.14 0 0 1 2.19 1.77v-8.43zM102.46 157a5.12 5.12 0 0 0 0-6.06 3.53 3.53 0 0 0-5.22 0 5 5 0 0 0 0 6 3.3 3.3 0 0 0 2.62 1.16 3.26 3.26 0 0 0 2.6-1.1zm15.67-18.43a3.13 3.13 0 0 1 0 4.23 3 3 0 0 1-4.19 0 3.14 3.14 0 0 1 0-4.23 3.07 3.07 0 0 1 4.19 0zm-4.79 6.9h5.49v16.77h-5.49zm25.19 1.53a6.5 6.5 0 0 1 1.66 4.68v10.57h-5.49v-9a3.15 3.15 0 0 0-.77-2.25 2.72 2.72 0 0 0-2.08-.82 3.19 3.19 0 0 0-2.25.9 3.66 3.66 0 0 0-1 2.29v8.87H123v-16.77h5.52v2.73a6 6 0 0 1 2.31-2.2 6.84 6.84 0 0 1 3.24-.74 5.83 5.83 0 0 1 4.46 1.74zm21.47-1.53v15.28a7.27 7.27 0 0 1-1.15 4.08 7.44 7.44 0 0 1-3.21 2.7 11.32 11.32 0 0 1-4.76.95 14 14 0 0 1-4.06-.59 12.89 12.89 0 0 1-3.44-1.58l1.92-3.81a9.85 9.85 0 0 0 2.48 1.21 8.67 8.67 0 0 0 2.7.43 4.59 4.59 0 0 0 2.94-.87 2.86 2.86 0 0 0 1.08-2.36v-1.8a5.64 5.64 0 0 1-4.77 2.2 6.73 6.73 0 0 1-6.25-3.86 9.41 9.41 0 0 1-.91-4.23 9.3 9.3 0 0 1 .88-4.15 6.62 6.62 0 0 1 2.5-2.79 6.84 6.84 0 0 1 3.66-1 6.67 6.67 0 0 1 2.81.57 5.46 5.46 0 0 1 2.09 1.66v-2zm-6.42 10.73a4.18 4.18 0 0 0 .93-2.82 4.23 4.23 0 0 0-.93-2.85 3.31 3.31 0 0 0-4.91 0 4.2 4.2 0 0 0-.95 2.84 4.13 4.13 0 0 0 .95 2.82 3.11 3.11 0 0 0 2.46 1.08 3.07 3.07 0 0 0 2.45-1.08z" id="_Group_2" data-name="&amp;lt;Group&amp;gt;"/></g></g></svg>