<svg xmlns="http://www.w3.org/2000/svg" viewBox="0 0 241.26 228.63"><defs><style>.cls-1{fill:#f68b1f}.cls-2{fill:#fff}</style></defs><title>8CH</title><g id="Layer_2" data-name="Layer 2"><g id="Layer_1-2" data-name="Layer 1"><path id="_Rectangle_" data-name="&amp;lt;Rectangle&amp;gt;" class="cls-1" d="M0 0h241.26v228.63H0z"/><path class="cls-2" d="M71.62 34.31a11.93 11.93 0 0 1 4.82 10 11.58 11.58 0 0 1-1.62 5.94 12.41 12.41 0 0 1-4.36 4.43 14.72 14.72 0 0 1 6.26 5.22 13.3 13.3 0 0 1 2.3 7.6 12.75 12.75 0 0 1-2.48 7.81 15.64 15.64 0 0 1-7.09 5.15 29.38 29.38 0 0 1-10.73 1.8A29.08 29.08 0 0 1 48 80.42a16.13 16.13 0 0 1-7.09-5.08 12.21 12.21 0 0 1-2.52-7.67 12.92 12.92 0 0 1 2.52-7.74 15.76 15.76 0 0 1 6.7-5.29A14.07 14.07 0 0 1 42.82 50a11.23 11.23 0 0 1-1.8-6 11.83 11.83 0 0 1 2.16-7.06 13.61 13.61 0 0 1 6.16-4.64 24.7 24.7 0 0 1 9.32-1.62q8.14-.08 12.96 3.63zM52.87 61.67a6.28 6.28 0 0 0 0 9.29 9.28 9.28 0 0 0 5.87 1.62 9.45 9.45 0 0 0 5.9-1.58 6.21 6.21 0 0 0 0-9.29A9.45 9.45 0 0 0 58.73 60a9.28 9.28 0 0 0-5.86 1.67zm.86-20.77A5 5 0 0 0 52 45a4.81 4.81 0 0 0 1.76 4 7.86 7.86 0 0 0 5 1.4 7.84 7.84 0 0 0 5-1.4 4.86 4.86 0 0 0 1.73-4 5 5 0 0 0-1.73-4.1 7.7 7.7 0 0 0-5-1.44 7.73 7.73 0 0 0-5.03 1.44z" id="_Group_" data-name="&amp;lt;Group&amp;gt;"/><path class="cls-2" d="M53.61 102.47H37.7v-2.23h15.91zm12.08 23.31a15.87 15.87 0 0 1-2.23.74A19 19 0 0 0 63 124q-1.53.44-9.58 2.09l-.92-1.86h-.06a2.78 2.78 0 0 1-.77 1.54 2.39 2.39 0 0 1-1.7.73h-2.46l-.71-2.1a6.49 6.49 0 0 1 1.23.06 8.23 8.23 0 0 0 .89.09 1.39 1.39 0 0 0 1.1-.33 2.6 2.6 0 0 0 .27-1.46v-4.57a5.64 5.64 0 0 1-2.38-.32 1.64 1.64 0 0 1-1.08-1.15q-.17-.77-.42-3.21h-1.44a6.29 6.29 0 0 1-.69 3.22 4 4 0 0 1-2.4 2.08v.06h7.78v2.12h-3.18v4.18H44.3V121h-2.75v-2.12l-.65-1h-.06V127h-2.2v-15.75h13.82v12.52q5.15-.85 5.42-.92v-5.65h-3.79v-11.57h3.78v-6.2h2.21v6.18h3.82v11.59h-3.78v5.36q.18-.06 1.1-.22a5 5 0 0 0 1.15-.28q-.08-.12-.43-1a5 5 0 0 0-.84-1.4l2-.71a14.53 14.53 0 0 1 2.59 6.83zM51 109.92H40.21v-6.05H51zm-8.16 3.62h-2V117a3.23 3.23 0 0 0 2.01-3.47zm5.86-5.74V106h-6.23v1.76zm1.59 8.31v-2.57h-1.8v2.15a.54.54 0 0 0 .26.26 4.29 4.29 0 0 0 .61.08zm7.58-1.21v-7h-1.6v7zm3.94 0v-7h-1.73v7zm13.66-7.72q-.86 2.68-4.72 6.39l-1.83-1.67a19 19 0 0 0 4.84-5.9zm-.2-4.18l-1.73 1.83a12.61 12.61 0 0 0-4-3.72L71 99.68a10.22 10.22 0 0 1 4.27 3.32zm8.16 12.81q0 6.46-3.34 8.65t-9.41 2.45l-1.09-2.27q4-.24 5.56-.49a8.41 8.41 0 0 0 3.23-1.33 4.86 4.86 0 0 0 2.13-2.51 20.51 20.51 0 0 0 .67-4.49zm12.4-4.22l-1.6 2a17.66 17.66 0 0 1-9.16-5.39 8.84 8.84 0 0 1-3.13 2.75 12.91 12.91 0 0 1-4.46 1.62H90v9.67h-2.33v-7.42H77v7.42h-2.38v-9.67H76l-1-1.33a20.57 20.57 0 0 0 6.32-2.6 8.11 8.11 0 0 0 3-4.2l2.18.5-.41 1.21a11.13 11.13 0 0 0 3.29 3 24.32 24.32 0 0 0 6.45 2.43zm-2.36-10.1a8.53 8.53 0 0 1-.22 2.59 12.15 12.15 0 0 1-1.67 3.42l-2.1-1.15a7.8 7.8 0 0 0 1.53-2.6h-9.06a14.4 14.4 0 0 1-4.56 4.62l-1.59-1.83a12.53 12.53 0 0 0 5.46-7.19l2.07.74q-.14.45-.53 1.41zm-.1 23.51l-1.18 2.17a28.11 28.11 0 0 0-9.63-3.65l1.07-2a29.41 29.41 0 0 1 9.74 3.48z" id="_Group_2" data-name="&amp;lt;Group&amp;gt;"/></g></g></svg>