<svg xmlns="http://www.w3.org/2000/svg" viewBox="0 0 241.26 228.63"><defs><style>.cls-1{fill:#f37021}.cls-2{fill:#fff}</style></defs><title>9</title><g id="Layer_2" data-name="Layer 2"><g id="Layer_1-2" data-name="Layer 1"><path id="_Rectangle_" data-name="&amp;lt;Rectangle&amp;gt;" class="cls-1" d="M0 0h241.26v177.57a51.06 51.06 0 0 1-51.06 51.06H0V0z"/><path class="cls-2" d="M44 71.39a18.54 18.54 0 0 0 5.54.83q5.76 0 8.71-3.49T61 58.9q-3.82 5.47-11.74 5.47a16.72 16.72 0 0 1-8.42-2.05 14.17 14.17 0 0 1-5.58-5.76 18 18 0 0 1-2-8.6 17.79 17.79 0 0 1 2.3-9.18 15.47 15.47 0 0 1 6.48-6 21.17 21.17 0 0 1 9.72-2.12 21.1 21.1 0 0 1 11.45 3 19.58 19.58 0 0 1 7.42 8.64 31.55 31.55 0 0 1 2.59 13.32 32.67 32.67 0 0 1-2.84 14 21.57 21.57 0 0 1-8 9.32 22.15 22.15 0 0 1-12.1 3.28 32.9 32.9 0 0 1-8.5-1.15 29.63 29.63 0 0 1-7.49-3L39.16 69A16.2 16.2 0 0 0 44 71.39zm3.1-28.58A7 7 0 0 0 45.2 48a6.94 6.94 0 0 0 1.8 5.1 6.83 6.83 0 0 0 5.11 1.84 7.54 7.54 0 0 0 5.58-2 7 7 0 0 0 2-5.15 6.77 6.77 0 0 0-1.87-4.9A7.25 7.25 0 0 0 52.33 41a7.19 7.19 0 0 0-5.25 1.8z" id="_Group_" data-name="&amp;lt;Group&amp;gt;"/><path class="cls-2" d="M45.64 108.56a6 6 0 0 0-2.88-.79 5.64 5.64 0 0 0-3 .82 5.81 5.81 0 0 0-2.12 2.26 7 7 0 0 0 0 6.42 5.81 5.81 0 0 0 2.12 2.26 5.64 5.64 0 0 0 3 .82 6.59 6.59 0 0 0 2.79-.68 8.85 8.85 0 0 0 2.6-1.86l3.32 3.56a13.26 13.26 0 0 1-4.2 3 11.66 11.66 0 0 1-10.65-.37 10.87 10.87 0 0 1-4.09-4.06 11.31 11.31 0 0 1-1.53-5.81 10.83 10.83 0 0 1 5.69-9.7 12.37 12.37 0 0 1 10.75-.43 11.85 11.85 0 0 1 4 2.74l-3.29 4a8.12 8.12 0 0 0-2.51-2.18zm20.46.59a7.83 7.83 0 0 1 3.22 3 9.38 9.38 0 0 1 0 9 7.83 7.83 0 0 1-3.22 3 11.33 11.33 0 0 1-9.61 0 7.71 7.71 0 0 1-3.21-3 9.49 9.49 0 0 1 0-9 7.71 7.71 0 0 1 3.21-3 11.33 11.33 0 0 1 9.61 0zm-7.41 4.54a4.43 4.43 0 0 0-1 3 4.48 4.48 0 0 0 1 3 3.28 3.28 0 0 0 2.6 1.15 3.31 3.31 0 0 0 2.64-1.15 4.48 4.48 0 0 0 1-3 4.39 4.39 0 0 0-1-3 3.33 3.33 0 0 0-2.62-1.15 3.28 3.28 0 0 0-2.62 1.15zm30.08-3.9a6.5 6.5 0 0 1 1.66 4.68V125h-5.48v-9a3.15 3.15 0 0 0-.77-2.25 2.72 2.72 0 0 0-2.08-.82 3.19 3.19 0 0 0-2.25.9 3.66 3.66 0 0 0-1 2.29V125h-5.56v-16.73h5.52V111a6 6 0 0 1 2.31-2.2 6.84 6.84 0 0 1 3.24-.74 5.83 5.83 0 0 1 4.41 1.73zm16.32 14.38a8.25 8.25 0 0 1-2.09.83 10.31 10.31 0 0 1-2.45.29 5.66 5.66 0 0 1-4-1.43 5.11 5.11 0 0 1-1.55-3.94v-7.19h-2.37v-3.66H95v-4.65h5.49v4.65h4.34v3.66h-4.34v6.32q0 1.77 1.46 1.77a5.38 5.38 0 0 0 2.14-.56zm15.6-14.52a5.59 5.59 0 0 1 2 4.48V125h-5.42v-1.89a6 6 0 0 1-5.05 2.14 5.89 5.89 0 0 1-4.2-1.44 5 5 0 0 1-1.54-3.8 4.5 4.5 0 0 1 1.66-3.72 7.57 7.57 0 0 1 4.76-1.36h4.37v-.19a2.24 2.24 0 0 0-.82-1.86 3.75 3.75 0 0 0-2.37-.65 9.55 9.55 0 0 0-2.37.34 14 14 0 0 0-2.65 1l-1.52-3.72a21.86 21.86 0 0 1 3.92-1.38 16.63 16.63 0 0 1 3.89-.45 8.22 8.22 0 0 1 5.34 1.63zM116 120.93a2.62 2.62 0 0 0 1.18-1.57v-1.46h-3.29q-2.32 0-2.32 1.74a1.71 1.71 0 0 0 .6 1.38 2.48 2.48 0 0 0 1.66.51 3.89 3.89 0 0 0 2.17-.6zm17.89-8.29a3 3 0 0 0-2.42 1.13 5.11 5.11 0 0 0 0 5.88 3 3 0 0 0 2.42 1.12 3.43 3.43 0 0 0 3.29-1.89l4.06 2.33a6.9 6.9 0 0 1-3 3 9.76 9.76 0 0 1-4.65 1.05 9.38 9.38 0 0 1-4.53-1.05 7.42 7.42 0 0 1-3-3 9 9 0 0 1-1.07-4.46 9.26 9.26 0 0 1 1.08-4.54 7.52 7.52 0 0 1 3.05-3 10.14 10.14 0 0 1 9 0 7.47 7.47 0 0 1 3 2.93l-4 2.32a3.75 3.75 0 0 0-3.23-1.82zm20.8 11.53a8.25 8.25 0 0 1-2.14.82 10.31 10.31 0 0 1-2.45.29 5.66 5.66 0 0 1-4-1.43 5.11 5.11 0 0 1-1.54-3.94v-7.19h-2.33v-3.66h2.33v-4.65H150v4.65h4.34v3.66H150v6.32q0 1.77 1.46 1.77a5.38 5.38 0 0 0 2.14-.56z" id="_Group_2" data-name="&amp;lt;Group&amp;gt;"/></g></g></svg>