<svg xmlns="http://www.w3.org/2000/svg" viewBox="0 0 241.26 228.63"><defs><style>.cls-1{fill:#f37021}.cls-2{fill:#fff}</style></defs><title>9CH</title><g id="Layer_2" data-name="Layer 2"><g id="Layer_1-2" data-name="Layer 1"><path id="_Rectangle_" data-name="&amp;lt;Rectangle&amp;gt;" class="cls-1" d="M0 0h241.26v177.57a51.06 51.06 0 0 1-51.06 51.06H0V0z"/><path class="cls-2" d="M44 71.39a18.54 18.54 0 0 0 5.54.83q5.76 0 8.71-3.49T61 58.9q-3.82 5.47-11.74 5.47a16.72 16.72 0 0 1-8.42-2.05 14.17 14.17 0 0 1-5.58-5.76 18 18 0 0 1-2-8.6 17.79 17.79 0 0 1 2.3-9.18 15.47 15.47 0 0 1 6.48-6 21.17 21.17 0 0 1 9.72-2.12 21.1 21.1 0 0 1 11.45 3 19.58 19.58 0 0 1 7.42 8.64 31.55 31.55 0 0 1 2.59 13.32 32.67 32.67 0 0 1-2.84 14 21.57 21.57 0 0 1-8 9.32 22.15 22.15 0 0 1-12.1 3.28 32.9 32.9 0 0 1-8.5-1.15 29.63 29.63 0 0 1-7.49-3L39.16 69A16.2 16.2 0 0 0 44 71.39zm3.1-28.58A7 7 0 0 0 45.2 48a6.94 6.94 0 0 0 1.8 5.1 6.83 6.83 0 0 0 5.11 1.84 7.54 7.54 0 0 0 5.58-2 7 7 0 0 0 2-5.15 6.77 6.77 0 0 0-1.87-4.9A7.25 7.25 0 0 0 52.33 41a7.19 7.19 0 0 0-5.25 1.8z" id="_Group_" data-name="&amp;lt;Group&amp;gt;"/><path class="cls-2" d="M41.51 114.19l-2.75 1.21v8.37q0 3.21-2.63 3.32l-2.27.09-.68-2.35 2.12.06q1.1 0 1.11-.44v-8q-2 .79-3 1.24l-1.65-1.86q3.8-1.45 4.68-1.86v-6.18h-4v-2.26h4v-6h2.36v6h2.69v2.26h-2.73V113q1.33-.6 2.75-1.21zm18.21-9.73h-5.34l.8.5a15.75 15.75 0 0 1-1.6 2.91h4.18v15.93q0 3-2.47 3h-2.15l-.77-2.36 2.54.12q.5 0 .5-.86v-13.57H44.17v17.18h-2.43v-19.45h5.12a8.35 8.35 0 0 0-3-2.94l.71-.47H40v-2.25h8.52v-2.74h2.42v2.74h8.81zM55 115.21h-4.15v2.1H54v6.57h-8.4v-6.57h3v-2.1h-4.17v-2.27h4.18v-2.45h2.24v2.45H55zm-2.38-10.76h-6a7.5 7.5 0 0 1 2.63 3l-.77.39h2a7.36 7.36 0 0 0 2.17-3.39zm-1 17.3v-2.3h-3.69v2.3zm38.69-18.66h-8.72v2.07l6.41-.06v8.37H76.36l1.27 1-1.3 1.42h13.72V118h-5.3a14 14 0 0 1-3.22 3.54 40.31 40.31 0 0 1 8.57 3.8l-1.68 1.83A53.89 53.89 0 0 0 79 123.3q-5.34 3-14.38 3.72l-1.65-2.17a37.65 37.65 0 0 0 12.22-2.24v-.06l-7.31-.83 3.27-3.72h-6.87v-2.13h9l2.27-2.42h-9.14v-8.35l6.36.06v-2.07H64v-2.25h26.31zm-17.54 4.25h-4v3.84h4zM81.94 118h-7.6l-1.7 1.86q2.83.3 5.95.89a12.81 12.81 0 0 0 3.35-2.75zm-2.75-12.93v-2h-4v2zm0 6.12v-3.84h-4v3.84zm6.45 0v-3.84h-4v3.84zm16.92-10.86q-.59 2-1.41 4.12l-.83 2v20.68H98v-16.47a23.22 23.22 0 0 1-2.7 3.81l-2-1.56a37.73 37.73 0 0 0 7-13.46zm18.94 5.95H102V104h19.46zm-2.1 4.53h-15.66v-2.27h15.65zm0 4.44h-15.66V113h15.65zm0-13.11h-15.63v-2.27h15.65zm-.41 25h-2.25v-1.83h-10.4v1.83h-2.27v-9.51H119zm-2.25-3.84v-3.65h-10.4v3.65zm15.14-3.53a14.35 14.35 0 0 1-5.57 5.27l-1.65-1.74a12.69 12.69 0 0 0 5.46-4.8zm15.47-3.25H129.8V102h6.86a12.25 12.25 0 0 0 2.25-3.09L141 100a10 10 0 0 1-1.48 2h7.81zM145 106v-1.7h-12.84v1.7zm0 4.13v-1.86h-12.84v1.86zm0 4.15v-2h-12.84v2zm1.11 6.71a16.3 16.3 0 0 1-1.49 4 2 2 0 0 1-1.79.86h-7.6q-2.57 0-2.57-2.07v-5.52H135v4.4q0 .94.74.94h6.6q.53 0 .82-.82l.74-2.07zm-3.81-.41l-1.57 1.62a12.27 12.27 0 0 0-5.3-3.66l1.51-1.68a11.84 11.84 0 0 1 5.35 3.68zm10.46 2.79l-2 1.36a10.82 10.82 0 0 0-5.6-4.89l1.83-1.42a12.53 12.53 0 0 1 5.76 4.91z" id="_Group_2" data-name="&amp;lt;Group&amp;gt;"/></g></g></svg>