<svg xmlns="http://www.w3.org/2000/svg" viewBox="0 0 241.26 228.63"><defs><style>.cls-1{fill:#149fbc;}.cls-2{fill:#fff;}</style></defs><title>1CH</title><g id="Layer_2" data-name="Layer 2"><g id="Layer_1-2" data-name="Layer 1"><path id="_Rectangle_" data-name="&lt;Rectangle&gt;" class="cls-1" d="M51.06,0h190.2a0,0,0,0,1,0,0V228.63a0,0,0,0,1,0,0H0a0,0,0,0,1,0,0V51.06A51.06,51.06,0,0,1,51.06,0Z"/><g id="_Group_" data-name="&lt;Group&gt;"><path class="cls-2" d="M33.31,35.18h22.9V85.65H43V46H33.31Z"/></g><g id="_Group_2" data-name="&lt;Group&gt;"><path class="cls-2" d="M64.09,108.56h-10q-.65,1.09-2,3V132H49.56V114.57q-3,4-10.29,8.07l-1.56-2a32.59,32.59,0,0,0,7.72-5,32.23,32.23,0,0,0,5.68-7.07H38.18V106.2H64.09Zm.2,12.58-1.89,1.62a26,26,0,0,0-9.46-7.63l1.65-1.65A29,29,0,0,1,64.29,121.14Z"/><path class="cls-2" d="M93.85,127.9a4,4,0,0,1-.86,2.9q-.85.82-3.9.82-.7,0-1.53,0L86.72,129a20.65,20.65,0,0,0,3.92-.21q.77-.21.77-1.42v-19.5H72.62v24.46H70.18V105.64H93.85Zm-3.41-14.36H74.11v-2.26H90.45Zm-2.51,12.71H76.13V117H87.93ZM85.59,124v-4.78h-7.1V124Z"/><path class="cls-2" d="M106,123.32a17.07,17.07,0,0,1-4.95,6.34L99.2,128a13,13,0,0,0,4.89-6Zm16.27-3.84H103.43V105.86h18.88Zm-10.63-8v-3.35H105.8v3.35Zm0,5.74v-3.47H105.8v3.47Zm8.58,8q-.18,3.09-1.35,4.34a3.55,3.55,0,0,1-2.64,1.25H109.7q-2.79,0-2.79-2.57v-5.83h2.35v5.12q0,1,1.15,1H116a1.57,1.57,0,0,0,1.45-.8,6.71,6.71,0,0,0,.54-3Zm-4-.71-2.07,1.36a10.35,10.35,0,0,0-4.59-4.42l1.76-1.33A10.05,10.05,0,0,1,116.24,124.45Zm3.72-13v-3.35H114v3.35Zm0,5.74v-3.47H114v3.47ZM126.5,128l-2.1,1.3a13.7,13.7,0,0,0-5.12-6l1.83-1.41A15.35,15.35,0,0,1,126.5,128Z"/><path class="cls-2" d="M141.06,121.36q-6.12,1.5-9.35,2.5l-1.12-2.07a34.47,34.47,0,0,0,4.44-5.15q-1.8.44-3.38.94l-1.18-2.12a74,74,0,0,0,5.21-11.1l2.1,1q-2.69,6.19-4.5,9.42l3.25-.68a32.57,32.57,0,0,0,2.09-3.71l2.16,1q-3.18,6.49-6.51,9.46l.06.06,6.72-1.65Zm0,5-9.29,3.31-1.18-2.13q3.24-.94,10.47-3.5Zm16,3.88h-13V132h-2.36v-16.3h-.09a5.42,5.42,0,0,1-1.42,2l-2.07-1.21a26,26,0,0,0,5.77-12.06l2.16.85-1.33,4.59h11.44v2.26h-5.59v3.48h5.3v2.26h-5.3v3.69h5.3v2.26h-5.3V128H157Zm-8.79-14.68v-3.48h-4.16v3.48Zm0,5.95v-3.69h-4.16v3.69Zm0,6.48v-4.22h-4.16V128Zm4.27-19.84-2.07,1.33a10.54,10.54,0,0,0-3.1-4.15l2-1.21A13.42,13.42,0,0,1,152.51,108.15Z"/></g></g></g></svg>