<svg xmlns="http://www.w3.org/2000/svg" viewBox="0 0 241.26 228.63"><defs><style>.cls-1{fill:#077183}.cls-2{fill:#fff}</style></defs><title>2</title><g id="Layer_2" data-name="Layer 2"><g id="Layer_1-2" data-name="Layer 1"><path id="_Rectangle_" data-name="&amp;lt;Rectangle&amp;gt;" class="cls-1" d="M0 0h241.26v228.63H0z"/><path class="cls-2" d="M79 75.06v10.59H40.59l-.07-8.71 18.36-18.87a26 26 0 0 0 3.53-4.46 7.69 7.69 0 0 0 1.37-3.82 3.74 3.74 0 0 0-1.51-3.2A7 7 0 0 0 58 45.47a16.43 16.43 0 0 0-6.73 1.69 29.51 29.51 0 0 0-7.16 4.72l-5-9.72Q49.52 34.6 60 34.6a23.43 23.43 0 0 1 9 1.66 14.61 14.61 0 0 1 6.26 4.68 11.22 11.22 0 0 1 2.27 6.91 15.29 15.29 0 0 1-2.56 8 49.94 49.94 0 0 1-7.24 8.82L57.51 75.06z" id="_Group_" data-name="&amp;lt;Group&amp;gt;"/><path class="cls-2" d="M51.31 113.56a6 6 0 0 0-2.88-.79 5.64 5.64 0 0 0-3 .82 5.82 5.82 0 0 0-2.12 2.26 7 7 0 0 0 0 6.42 5.82 5.82 0 0 0 2.12 2.26 5.64 5.64 0 0 0 3 .82 6.58 6.58 0 0 0 2.79-.68 8.85 8.85 0 0 0 2.6-1.86l3.32 3.56a13.27 13.27 0 0 1-4.2 3 11.66 11.66 0 0 1-10.65-.37 10.87 10.87 0 0 1-4.09-4.06 11.3 11.3 0 0 1-1.49-5.77 10.83 10.83 0 0 1 5.69-9.7 12.36 12.36 0 0 1 10.71-.47 11.85 11.85 0 0 1 4 2.74l-3.29 4a8.11 8.11 0 0 0-2.51-2.18zm16.01.26a6.31 6.31 0 0 1 3.15-.77v5.05a8.33 8.33 0 0 0-.84 0 5.11 5.11 0 0 0-3.16.91 3.51 3.51 0 0 0-1.4 2.5V130h-5.51v-16.73h5.52v2.79a6 6 0 0 1 2.24-2.24zm19.24 1.68a9.49 9.49 0 0 1 2.2 6.63v1H77.07a4 4 0 0 0 1.4 2.19 3.86 3.86 0 0 0 2.42.76 5.24 5.24 0 0 0 2.09-.43 5.92 5.92 0 0 0 1.84-1.27l2.88 2.88a8.49 8.49 0 0 1-3.15 2.22 10.85 10.85 0 0 1-4.17.76 10 10 0 0 1-4.71-1.05 7.32 7.32 0 0 1-3.08-3 9 9 0 0 1-1.07-4.46 9.25 9.25 0 0 1 1.08-4.54 7.5 7.5 0 0 1 3.07-3 9.52 9.52 0 0 1 4.59-1.07 8.08 8.08 0 0 1 6.3 2.38zm-3.16 4.68a3.23 3.23 0 0 0-.85-2.34 3.24 3.24 0 0 0-4.43 0 4.32 4.32 0 0 0-1.16 2.36zm21.14-5.54a5.59 5.59 0 0 1 2 4.48V130h-5.42v-1.89a6 6 0 0 1-5.12 2.17 5.89 5.89 0 0 1-4.2-1.44 5 5 0 0 1-1.53-3.8 4.51 4.51 0 0 1 1.66-3.72A7.57 7.57 0 0 1 96.7 120h4.37v-.19a2.24 2.24 0 0 0-.82-1.86 3.75 3.75 0 0 0-2.37-.65 9.58 9.58 0 0 0-2.37.34 14.13 14.13 0 0 0-2.65 1l-1.52-3.72a21.83 21.83 0 0 1 3.92-1.38 16.65 16.65 0 0 1 3.89-.45 8.21 8.21 0 0 1 5.39 1.55zm-4.65 11.28a2.62 2.62 0 0 0 1.18-1.57v-1.46h-3.29q-2.33 0-2.33 1.74a1.71 1.71 0 0 0 .6 1.38 2.49 2.49 0 0 0 1.66.51 3.89 3.89 0 0 0 2.18-.59zm21.23 3.25a8.28 8.28 0 0 1-2.12.83 10.31 10.31 0 0 1-2.45.29 5.66 5.66 0 0 1-4-1.43 5.11 5.11 0 0 1-1.53-3.94v-7.19h-2.32v-3.66h2.3v-4.65h5.49v4.65h4.34v3.66h-4.34v6.32q0 1.77 1.46 1.77a5.38 5.38 0 0 0 2.14-.56zm7.43-22.8a3.14 3.14 0 0 1 0 4.23 3 3 0 0 1-4.18 0 3.13 3.13 0 0 1 0-4.23 3.07 3.07 0 0 1 4.18 0zm-4.79 6.9h5.49V130h-5.49zm25.19 1.51a6.5 6.5 0 0 1 1.66 4.68V130h-5.49v-9a3.15 3.15 0 0 0-.77-2.25 2.72 2.72 0 0 0-2.08-.82 3.19 3.19 0 0 0-2.25.9 3.66 3.66 0 0 0-1 2.29V130h-5.52v-16.73h5.5V116a6 6 0 0 1 2.31-2.2 6.84 6.84 0 0 1 3.24-.74 5.83 5.83 0 0 1 4.4 1.72zm21.46-1.51v15.28a7.27 7.27 0 0 1-1.15 4.08 7.44 7.44 0 0 1-3.21 2.7 11.32 11.32 0 0 1-4.76.95 14 14 0 0 1-4.06-.59 12.88 12.88 0 0 1-3.44-1.58l1.92-3.81a9.89 9.89 0 0 0 2.48 1.21 8.67 8.67 0 0 0 2.7.43 4.59 4.59 0 0 0 2.94-.87 2.86 2.86 0 0 0 1.08-2.36v-1.8a5.64 5.64 0 0 1-4.77 2.2 6.73 6.73 0 0 1-6.25-3.86A9.41 9.41 0 0 1 153 121a9.3 9.3 0 0 1 .88-4.15 6.61 6.61 0 0 1 2.5-2.79 6.84 6.84 0 0 1 3.66-1 6.68 6.68 0 0 1 2.81.57 5.47 5.47 0 0 1 2.09 1.66v-2zM164 124a4.18 4.18 0 0 0 .93-2.82 4.23 4.23 0 0 0-.93-2.85 3.31 3.31 0 0 0-4.91 0 4.2 4.2 0 0 0-.95 2.84 4.14 4.14 0 0 0 .95 2.82 3.11 3.11 0 0 0 2.46 1.08A3.07 3.07 0 0 0 164 124zM35.84 150.47h5.67L45 162.12l3.53-11.66h5.52l-6.29 16.77h-5.65zm32.58 1.38a5.59 5.59 0 0 1 2 4.48v10.91H65v-1.89a6 6 0 0 1-5.05 2.14A5.89 5.89 0 0 1 55.7 166a5 5 0 0 1-1.53-3.8 4.51 4.51 0 0 1 1.66-3.72 7.57 7.57 0 0 1 4.76-1.36H65V157a2.24 2.24 0 0 0-.82-1.86 3.75 3.75 0 0 0-2.37-.65 9.58 9.58 0 0 0-2.37.34 14.13 14.13 0 0 0-2.65 1l-1.52-3.72a21.83 21.83 0 0 1 3.92-1.38 16.65 16.65 0 0 1 3.89-.45 8.21 8.21 0 0 1 5.34 1.57zm-4.65 11.28a2.62 2.62 0 0 0 1.23-1.57v-1.46h-3.33q-2.33 0-2.33 1.74a1.71 1.71 0 0 0 .6 1.38 2.49 2.49 0 0 0 1.66.51 3.89 3.89 0 0 0 2.17-.6zm10.48-18.9h5.52v23h-5.52zm26.26 6.24v16.77H95v-2.73a5.89 5.89 0 0 1-5.36 3 5.66 5.66 0 0 1-4.36-1.75 6.58 6.58 0 0 1-1.63-4.67v-10.6h5.52v9a3.21 3.21 0 0 0 .73 2.23 2.52 2.52 0 0 0 2 .81 2.87 2.87 0 0 0 2.29-1.07 4.19 4.19 0 0 0 .84-2.71v-8.28zm17.89 2.23a9.49 9.49 0 0 1 2.2 6.63v1h-11.69a4 4 0 0 0 1.4 2.19 3.86 3.86 0 0 0 2.42.76 5.24 5.24 0 0 0 2.09-.43 5.92 5.92 0 0 0 1.84-1.27l2.88 2.88a8.49 8.49 0 0 1-3.15 2.22 10.85 10.85 0 0 1-4.17.76 10 10 0 0 1-4.71-1.05 7.32 7.32 0 0 1-3.08-3 9 9 0 0 1-1.07-4.46 9.25 9.25 0 0 1 1.08-4.54 7.5 7.5 0 0 1 3.07-3 9.52 9.52 0 0 1 4.59-1.07 8.08 8.08 0 0 1 6.3 2.38zm-3.16 4.68a3.23 3.23 0 0 0-.85-2.34 3.24 3.24 0 0 0-4.43 0 4.32 4.32 0 0 0-1.16 2.36z" id="_Group_2" data-name="&amp;lt;Group&amp;gt;"/></g></g></svg>