<svg xmlns="http://www.w3.org/2000/svg" viewBox="0 0 28.71 40.56"><defs><style>.cls-1{fill:#fff;}.cls-2{fill:#fbb102;}</style></defs><title>2Logo</title><g id="Layer_2" data-name="Layer 2"><g id="Layer_1-2" data-name="Layer 1"><path class="cls-1" d="M0,2.2V38.36a2.2,2.2,0,0,0,3.51,1.77L27.82,22a2.2,2.2,0,0,0,0-3.53L3.51.44A2.2,2.2,0,0,0,0,2.2"/><path class="cls-2" d="M3.22,24.39l6.31-4.81c1.57-1.23,2.17-2,2.17-3a1.68,1.68,0,0,0-1.88-1.71c-1.13,0-2,.65-3.35,2.17L3.31,14.37C5.12,12,6.9,10.76,10.17,10.76c3.68,0,6.21,2.19,6.21,5.37v0c0,2.7-1.4,4.09-3.9,5.9l-2.89,2H16v3.81H3.22Z"/></g></g></svg>
