<svg xmlns="http://www.w3.org/2000/svg" viewBox="0 0 241.26 228.63"><defs><style>.cls-1{fill:#094f5e;}.cls-2{fill:#fff;}</style></defs><title>3CH</title><g id="Layer_2" data-name="Layer 2"><g id="Layer_1-2" data-name="Layer 1"><rect id="_Rectangle_" data-name="&lt;Rectangle&gt;" class="cls-1" width="241.26" height="228.63"/><g id="_Group_" data-name="&lt;Group&gt;"><path class="cls-2" d="M69.86,60.41a12.5,12.5,0,0,1,3.71,9.32,15,15,0,0,1-2.52,8.57,16.6,16.6,0,0,1-7.13,5.83,25.94,25.94,0,0,1-10.8,2.09,36.07,36.07,0,0,1-10.91-1.69,29.17,29.17,0,0,1-9-4.5l4.9-9.29a23.37,23.37,0,0,0,6.77,4A20.13,20.13,0,0,0,52,76.14a10.8,10.8,0,0,0,6.41-1.62,5.39,5.39,0,0,0,2.23-4.64,5.3,5.3,0,0,0-2.23-4.61A11.14,11.14,0,0,0,52,63.69h-8.5v-7.2L55.14,45.26H35.84V35.18H71.12v7.63L57.37,55.41l2.66.5A17,17,0,0,1,69.86,60.41Z"/></g><g id="_Group_2" data-name="&lt;Group&gt;"><path class="cls-2" d="M45.67,125.27l-2.18,1.2a43.92,43.92,0,0,0-2.6-6.28A29.82,29.82,0,0,1,33,130.28l-1.54-1.85a27.87,27.87,0,0,0,8-10.49A50.26,50.26,0,0,0,34,111.37l1.92-1.15a38.73,38.73,0,0,1,4.59,5.06,35.07,35.07,0,0,0,1.39-6.84H32.25v-2.27h12a35,35,0,0,1-2.06,11.32A30.06,30.06,0,0,1,45.67,125.27Zm14.26,5L58.28,132q-3.09-1.89-6.6-8.22a28.94,28.94,0,0,1-7.81,8.34l-1.57-1.86a25.72,25.72,0,0,0,8.11-8.85,60.29,60.29,0,0,1-4.24-13H45v-2.27H56.8v2.16a44.46,44.46,0,0,1-3.75,13Q56,127.49,59.93,130.28Zm-5.46-21.84H48.34a46.3,46.3,0,0,0,3.44,10.13Q52.33,117.69,54.47,108.44Z"/><path class="cls-2" d="M71.95,129.45a1.69,1.69,0,0,1-.54,1.29,1.94,1.94,0,0,1-1.38.51H68L67.24,129l1.89.23q.59.06.59-.5v-2.07H67.39a10,10,0,0,1-3.29,5.15l-1.7-1.86q2.94-2.68,2.94-5.12v-7.1h6.6Zm18.24-20.8h-20q0,1,.65,1H86.62v2.15H69.7a2,2,0,0,1-1.31-.47,1.45,1.45,0,0,1-.55-1.15v-1.48h-4v-2H76.05v-.06a7.18,7.18,0,0,0-2.3-1l1.83-1.6a13.37,13.37,0,0,1,3.78,2l-.47.62H90.19ZM69.72,124.48v-1.24H67.53l0,1.24Zm0-3.38v-1.27H67.59a1.38,1.38,0,0,1,0,.3l-.06,1Zm16.21-4.24H67.83v-4.37h18.1Zm-2.29-1.77v-.86H70.07v.86Zm-4.28,13.34-1.51,1.3a8.92,8.92,0,0,0-1.24-2,6.61,6.61,0,0,1-3,3.91l-1.21-1.79a5.19,5.19,0,0,0,3.19-5.12v-4.19l1.62.23a38.78,38.78,0,0,1-.17,5A8.44,8.44,0,0,1,79.37,128.43Zm.56-2.48h-2v-6.12H74.81v6.68h-2V117.7h7.1Zm10.82,1.67q-.89,3.63-2.42,3.63H86.94a1.59,1.59,0,0,1-1.17-.58,1.77,1.77,0,0,1-.54-1.22v-3.56l-1.3.54a6.31,6.31,0,0,0-1.12-3.31q-.38,6-2.6,9.05a6.89,6.89,0,0,0-.86-.83q-.56-.47-.74-.65a11.45,11.45,0,0,0,2.19-7.13V117.7h6.86v11.25s.14.1.42.17q.18-.09.36-.75a6.27,6.27,0,0,0,.17-.75l.06-1.18Zm-5.46-3.13v-4.65H82.8v1.77l.91-.35a6.23,6.23,0,0,1,1.54,3.22Z"/></g></g></g></svg>