<svg xmlns="http://www.w3.org/2000/svg" viewBox="0 0 241.26 228.63"><defs><style>.cls-1{fill:#8951a0;}.cls-2{fill:#fff;}</style></defs><title>4CH</title><g id="Layer_2" data-name="Layer 2"><g id="Layer_1-2" data-name="Layer 1"><rect id="_Rectangle_" data-name="&lt;Rectangle&gt;" class="cls-1" width="241.26" height="228.63"/><g id="_Group_" data-name="&lt;Group&gt;"><path class="cls-2" d="M78.91,60.25v10H72.43V81.13H60.33V70.26H37.51V61.33L51.84,30.66H64.36L50.9,60.25h9.43V49.52h12.1V60.25Z"/></g><g id="_Group_2" data-name="&lt;Group&gt;"><path class="cls-2" d="M35.45,101.79h6.11L47,117.51l5.46-15.72h5.83l-8.49,21.73H43.89Z"/><path class="cls-2" d="M71.41,108.13a5.59,5.59,0,0,1,2,4.48v10.91H67.94v-1.89a6,6,0,0,1-5.05,2.14,5.89,5.89,0,0,1-4.2-1.44,5,5,0,0,1-1.53-3.8,4.51,4.51,0,0,1,1.66-3.72,7.57,7.57,0,0,1,4.76-1.36h4.37v-.19a2.24,2.24,0,0,0-.82-1.86,3.75,3.75,0,0,0-2.37-.65,9.58,9.58,0,0,0-2.37.34,14.13,14.13,0,0,0-2.65,1l-1.52-3.72A21.83,21.83,0,0,1,62.13,107a16.65,16.65,0,0,1,3.89-.45A8.21,8.21,0,0,1,71.41,108.13Zm-4.65,11.28a2.62,2.62,0,0,0,1.18-1.57v-1.46H64.66q-2.33,0-2.33,1.74a1.71,1.71,0,0,0,.6,1.38,2.49,2.49,0,0,0,1.66.51A3.9,3.9,0,0,0,66.76,119.41Z"/><path class="cls-2" d="M77.24,100.52h5.52v23H77.24Z"/><path class="cls-2" d="M103.5,106.75v16.77H98v-2.73a5.89,5.89,0,0,1-5.36,3A5.66,5.66,0,0,1,88.26,122a6.58,6.58,0,0,1-1.63-4.67v-10.6h5.52v9a3.21,3.21,0,0,0,.73,2.23,2.52,2.52,0,0,0,2,.81,2.87,2.87,0,0,0,2.29-1.07A4.19,4.19,0,0,0,98,115v-8.28Z"/><path class="cls-2" d="M121.38,109a9.49,9.49,0,0,1,2.2,6.63q0,.65,0,1H111.9a4,4,0,0,0,1.4,2.19,3.86,3.86,0,0,0,2.42.76,5.23,5.23,0,0,0,2.09-.43,5.91,5.91,0,0,0,1.84-1.27l2.88,2.88a8.49,8.49,0,0,1-3.15,2.22,10.85,10.85,0,0,1-4.17.76,10,10,0,0,1-4.71-1.05,7.32,7.32,0,0,1-3.08-3,9,9,0,0,1-1.07-4.46,9.25,9.25,0,0,1,1.08-4.54,7.5,7.5,0,0,1,3.07-3,9.52,9.52,0,0,1,4.59-1.07A8.08,8.08,0,0,1,121.38,109Zm-3.16,4.68a3.23,3.23,0,0,0-.85-2.34,3.24,3.24,0,0,0-4.43,0,4.32,4.32,0,0,0-1.16,2.36Z"/><path class="cls-2" d="M53.62,141a7.06,7.06,0,0,1,2.29,5.63,7.73,7.73,0,0,1-2.29,6,9.14,9.14,0,0,1-6.45,2.12H43.3v6H37.62V139h9.55A9.5,9.5,0,0,1,53.62,141Zm-4,8.32a3.24,3.24,0,0,0,.95-2.51,3.11,3.11,0,0,0-.95-2.43,3.87,3.87,0,0,0-2.68-.85H43.3v6.67h3.6A3.82,3.82,0,0,0,49.57,149.31Z"/><path class="cls-2" d="M66.47,144.51a6.31,6.31,0,0,1,3.15-.78v5.05a8.36,8.36,0,0,0-.84,0,5.11,5.11,0,0,0-3.16.91,3.51,3.51,0,0,0-1.4,2.5v8.56H58.7V143.95h5.52v2.79A6,6,0,0,1,66.47,144.51Z"/><path class="cls-2" d="M84.62,144.83a7.82,7.82,0,0,1,3.22,3,9.38,9.38,0,0,1,0,9,7.81,7.81,0,0,1-3.22,3,11.33,11.33,0,0,1-9.61,0,7.71,7.71,0,0,1-3.21-3,9.5,9.5,0,0,1,0-9,7.72,7.72,0,0,1,3.21-3,11.33,11.33,0,0,1,9.61,0Zm-7.41,4.54a5.1,5.1,0,0,0,0,6,3.28,3.28,0,0,0,2.6,1.15,3.31,3.31,0,0,0,2.63-1.15,4.48,4.48,0,0,0,1-3,4.4,4.4,0,0,0-1-3,3.32,3.32,0,0,0-2.62-1.15A3.28,3.28,0,0,0,77.21,149.37Z"/><path class="cls-2" d="M106.5,144.83a7.19,7.19,0,0,1,2.74,3,11,11,0,0,1,0,9,7,7,0,0,1-2.7,3,7.69,7.69,0,0,1-4,1.05,6.65,6.65,0,0,1-2.87-.6,6,6,0,0,1-2.19-1.75v8.18H92V143.95h5.52v2.17a5.92,5.92,0,0,1,4.93-2.36A7.75,7.75,0,0,1,106.5,144.83Zm-2.84,10.46a4.39,4.39,0,0,0,1-3,4.45,4.45,0,0,0-1-3A3.3,3.3,0,0,0,101,148.1a3.23,3.23,0,0,0-2.57,1.16,4.49,4.49,0,0,0-1,3,4.43,4.43,0,0,0,1,3,3.24,3.24,0,0,0,2.57,1.15A3.32,3.32,0,0,0,103.67,155.3Z"/><path class="cls-2" d="M125.66,144.83a7.82,7.82,0,0,1,3.22,3,9.38,9.38,0,0,1,0,9,7.81,7.81,0,0,1-3.22,3,11.33,11.33,0,0,1-9.61,0,7.71,7.71,0,0,1-3.21-3,9.5,9.5,0,0,1,0-9,7.72,7.72,0,0,1,3.21-3,11.33,11.33,0,0,1,9.61,0Zm-7.41,4.54a5.1,5.1,0,0,0,0,6,3.28,3.28,0,0,0,2.6,1.15,3.31,3.31,0,0,0,2.63-1.15,4.48,4.48,0,0,0,1-3,4.4,4.4,0,0,0-1-3,3.32,3.32,0,0,0-2.62-1.15A3.28,3.28,0,0,0,118.25,149.37Z"/><path class="cls-2" d="M138.71,147.55a2.2,2.2,0,0,0-1.15.26.86.86,0,0,0-.43.79,1,1,0,0,0,.68.9,12.52,12.52,0,0,0,2.17.74,27.2,27.2,0,0,1,3,1,5.47,5.47,0,0,1,2.06,1.55,4.09,4.09,0,0,1,.87,2.71,4.66,4.66,0,0,1-2,4,8.48,8.48,0,0,1-5.13,1.44,13.78,13.78,0,0,1-4.09-.6,10.82,10.82,0,0,1-3.47-1.78L133,155a12.23,12.23,0,0,0,3,1.53,9,9,0,0,0,3,.54,2.68,2.68,0,0,0,1.29-.26.83.83,0,0,0,.48-.76,1.06,1.06,0,0,0-.7-1,13.29,13.29,0,0,0-2.19-.74,24.45,24.45,0,0,1-2.91-1,5.49,5.49,0,0,1-2-1.54,4,4,0,0,1-.85-2.67,4.7,4.7,0,0,1,1.92-4,8,8,0,0,1,5-1.44,13.47,13.47,0,0,1,7,2l-1.86,3.6A12.29,12.29,0,0,0,138.71,147.55Z"/><path class="cls-2" d="M153.67,137.05a3.13,3.13,0,0,1,0,4.23,3,3,0,0,1-4.19,0,3.14,3.14,0,0,1,0-4.23,3.08,3.08,0,0,1,4.19,0Zm-4.79,6.9h5.49v16.77h-5.49Z"/><path class="cls-2" d="M169.5,159.85a8.3,8.3,0,0,1-2.14.82,10.31,10.31,0,0,1-2.45.29,5.66,5.66,0,0,1-4-1.43,5.11,5.11,0,0,1-1.53-3.94v-7.19H157v-3.66h2.32v-4.65h5.49v4.65h4.34v3.66h-4.34v6.32q0,1.77,1.46,1.77a5.38,5.38,0,0,0,2.14-.56Z"/><path class="cls-2" d="M176.92,137.05a3.13,3.13,0,0,1,0,4.23,3,3,0,0,1-4.19,0,3.14,3.14,0,0,1,0-4.23,3.08,3.08,0,0,1,4.19,0Zm-4.79,6.9h5.49v16.77h-5.49Z"/><path class="cls-2" d="M194.42,144.83a7.82,7.82,0,0,1,3.22,3,9.38,9.38,0,0,1,0,9,7.81,7.81,0,0,1-3.22,3,11.33,11.33,0,0,1-9.61,0,7.71,7.71,0,0,1-3.21-3,9.5,9.5,0,0,1,0-9,7.72,7.72,0,0,1,3.21-3,11.33,11.33,0,0,1,9.61,0ZM187,149.37a5.1,5.1,0,0,0,0,6,3.28,3.28,0,0,0,2.6,1.15,3.31,3.31,0,0,0,2.63-1.15,4.48,4.48,0,0,0,1-3,4.4,4.4,0,0,0-1-3,3.32,3.32,0,0,0-2.62-1.15A3.28,3.28,0,0,0,187,149.37Z"/><path class="cls-2" d="M217.09,145.47a6.5,6.5,0,0,1,1.66,4.68v10.57h-5.49v-9a3.14,3.14,0,0,0-.78-2.25,2.72,2.72,0,0,0-2.08-.82,3.19,3.19,0,0,0-2.25.9,3.65,3.65,0,0,0-1,2.29v8.87h-5.52V143.95h5.52v2.73a6,6,0,0,1,2.31-2.2,6.84,6.84,0,0,1,3.24-.74A5.83,5.83,0,0,1,217.09,145.47Z"/></g></g></g></svg>