<svg xmlns="http://www.w3.org/2000/svg" viewBox="0 0 241.26 228.63"><defs><style>.cls-1{fill:#633570;}.cls-2{fill:#fff;}</style></defs><title>5CH</title><g id="Layer_2" data-name="Layer 2"><g id="Layer_1-2" data-name="Layer 1"><rect id="_Rectangle_" data-name="&lt;Rectangle&gt;" class="cls-1" width="241.26" height="228.63"/><g id="_Group_" data-name="&lt;Group&gt;"><path class="cls-2" d="M70.43,50.89a15.88,15.88,0,0,1,6.84,5.4,13.5,13.5,0,0,1,2.41,7.92,16.8,16.8,0,0,1-2.52,9.22A16.46,16.46,0,0,1,70,79.55a25.71,25.71,0,0,1-10.87,2.16A33.85,33.85,0,0,1,48.69,80a37.7,37.7,0,0,1-9.54-4.54l4.9-9.5q7,5.62,13.61,5.62a9,9,0,0,0,5.83-1.69,5.65,5.65,0,0,0,2.09-4.64,5.29,5.29,0,0,0-2.05-4.5q-2.05-1.55-6.16-1.55-9.58,0-13.82.29V30.66H77.45V41.24H55.64v7.7h4.54A25.32,25.32,0,0,1,70.43,50.89Z"/></g><g id="_Group_2" data-name="&lt;Group&gt;"><path class="cls-2" d="M47.61,117.93l-8.76,3.6-2-1.86q1.59-.47,4.68-1.63V110.9H38.35v-2.26h3.13v-6H37.73v-2.27h9.61v2.27h-3.5v6H46.9v2.26H43.85v6.24q2.53-1.06,3.77-1.51ZM65,124H46.19v-2.27h8.19v-3.53H48.18V116h6.21V113H48V99.5H63.11V113H56.74V116H62.9v2.27H56.74v3.53H65ZM54.38,105v-3.25H50.32V105Zm0,5.77v-3.5H50.32v3.5Zm6.48-9H56.74V105H60.8Zm-.09,9v-3.5h-4v3.5Z"/><path class="cls-2" d="M96.57,107.37l-1.42,2.13A42.53,42.53,0,0,1,87.8,106v1.92H75.89v-2a29.73,29.73,0,0,1-6.63,3.78l-1.62-2A28.18,28.18,0,0,0,81.35,97.29l2.16.91-.53.74Q87.42,104.46,96.57,107.37Zm-22.1,12a13,13,0,0,1-4.71,5.54l-1.83-1.74a11.93,11.93,0,0,0,4.68-5.27Zm15.94-6.89q-2,3.25-7,4.92l-1.33-1.82a15.64,15.64,0,0,0,5-2.86H73.35v-2.35H90.41ZM89.82,121a7.53,7.53,0,0,1-1.36,3.46,2.92,2.92,0,0,1-2.21.85H78.31a1.89,1.89,0,0,1-1.55-.73,2.63,2.63,0,0,1-.58-1.7v-5.09h2.44v4.62q0,.62.65.62h6.68q1.3.18,1.51-3.28ZM87.18,105.6a23.61,23.61,0,0,1-5.56-4.8,35.52,35.52,0,0,1-5.21,4.8Zm-1.89,13.9-1.89,1.6a14.66,14.66,0,0,0-4.71-4.53l1.82-1.33A17.82,17.82,0,0,1,85.29,119.49Zm11.1,3.31-2,1.6a14.25,14.25,0,0,0-4.62-5.33l1.89-1.36A15.87,15.87,0,0,1,96.39,122.81Z"/><path class="cls-2" d="M117,112h-3.72v13.58h-2.36V112h-4.06q-.09,5.77-1.5,8.69a13.78,13.78,0,0,1-3.89,4.89l-1.92-1.67q5.3-4.06,4.92-11.91h-4v-2.26h4.07v-8.22h-3.22V99.27h15.15v2.27h-3.16v8.22H117Zm-6.08-2.26v-8.22h-4.06v8.22ZM127.32,116a25.23,25.23,0,0,1-10.85,9.61l-1.8-1.74q7.42-3.37,10.82-9.2ZM126,99.18a20.25,20.25,0,0,1-9,7.95l-1.77-1.74a21,21,0,0,0,8.93-7.54Zm.39,8.34q-2.85,5-9.32,8.07l-1.8-1.74q6.55-3,9.34-7.66Z"/><path class="cls-2" d="M158,119.62a15.56,15.56,0,0,1-1.63,5.25,1.58,1.58,0,0,1-1.36.64q-1.3,0-3.28-2.21a16.27,16.27,0,0,1-2.9-4.36,30.71,30.71,0,0,1-6.27,5.21l-2.13-1.65a24.53,24.53,0,0,0,7.28-5.8,42.57,42.57,0,0,1-2.35-11.43h-9.31v4.21h8.28a34.85,34.85,0,0,1-1,8.52,3.17,3.17,0,0,1-3.31,2.33,17.83,17.83,0,0,1-2.51-.24l-1-2.57a12.69,12.69,0,0,0,3.66.59q1.08,0,1.38-1.87a32.41,32.41,0,0,0,.37-4.49H136q-.13,6.53-1.16,9.37a13.86,13.86,0,0,1-2.63,4.63l-2-1.48q3.3-3.36,3.36-10.47l.09-10.79h11.43q-.15-3.68-.15-5.24h2.33q0,3.39.18,5.24h9.05v2.27h-8.9a35.25,35.25,0,0,0,1.83,9.35,28.72,28.72,0,0,0,4-7.72l2.15.71a32.32,32.32,0,0,1-5.09,9.49,31.22,31.22,0,0,0,2.46,4q1.31,1.79,1.94,1.79.2,0,.48-1.62a19.68,19.68,0,0,0,.32-3ZM156.08,101l-1.67,1.45a11.67,11.67,0,0,0-6-2.75L150.26,98A12.62,12.62,0,0,1,156.08,101Z"/></g></g></g></svg>