<svg xmlns="http://www.w3.org/2000/svg" viewBox="0 0 241.26 228.63"><defs><style>.cls-1{fill:#43214e;}.cls-2{fill:#fff;}</style></defs><title>6CH</title><g id="Layer_2" data-name="Layer 2"><g id="Layer_1-2" data-name="Layer 1"><rect id="_Rectangle_" data-name="&lt;Rectangle&gt;" class="cls-1" width="241.26" height="228.63"/><g id="_Group_" data-name="&lt;Group&gt;"><path class="cls-2" d="M62.7,40.92a19,19,0,0,0-5.58-.83q-5.83,0-8.75,3.49T45.6,53.34q3.82-5.4,11.74-5.4A16.93,16.93,0,0,1,65.8,50a14.12,14.12,0,0,1,5.62,5.76,18,18,0,0,1,2,8.6,17.8,17.8,0,0,1-2.3,9.18,15.42,15.42,0,0,1-6.52,6,21.39,21.39,0,0,1-9.76,2.12,21.11,21.11,0,0,1-11.45-3A19.55,19.55,0,0,1,36,70a31.62,31.62,0,0,1-2.59-13.28,32.66,32.66,0,0,1,2.84-14,21.58,21.58,0,0,1,8-9.32,22.16,22.16,0,0,1,12.1-3.28,33.34,33.34,0,0,1,8.53,1.15,29.71,29.71,0,0,1,7.52,3l-4.9,9.07A15.24,15.24,0,0,0,62.7,40.92ZM48.95,59.35a7.51,7.51,0,0,0-.11,10,7.25,7.25,0,0,0,5.47,1.94,7.45,7.45,0,0,0,5.33-1.84,6.83,6.83,0,0,0,1.94-5.22,6.79,6.79,0,0,0-1.87-5.08,7.09,7.09,0,0,0-5.18-1.84A7.55,7.55,0,0,0,48.95,59.35Z"/></g><g id="_Group_2" data-name="&lt;Group&gt;"><path class="cls-2" d="M50.23,108.76l-1.62,1.92a30.61,30.61,0,0,0-2-2.42,60.53,60.53,0,0,1-.48,8.26,3.78,3.78,0,0,1-1.12,2.06,2.65,2.65,0,0,1-1.77.67,11.33,11.33,0,0,1-2.54-.61q-.21-1.06-.47-2.53a7.54,7.54,0,0,0,2.42.77q.89,0,1.19-1.19a30.39,30.39,0,0,0,.29-5.52H38.48V121.3q0,.8.59.8h7.55a.78.78,0,0,0,.63-.36,1.46,1.46,0,0,0,.3-.79l.12-2.42L50,119.86q-.27,4.31-2.63,4.31H38.45a2.11,2.11,0,0,1-2.36-2.42V109.38a16.78,16.78,0,0,1-3,2.1l-1.48-2.07q6.21-2.77,9.11-11.84l2,.92L42,101A33.15,33.15,0,0,1,50.23,108.76Zm-3.81-.89a30.33,30.33,0,0,0-5.21-5.06,19.91,19.91,0,0,1-3.63,5.12Zm6.78,10.78H50.85V102.57H53.2ZM58,123.28a2,2,0,0,1-.63,1.56,1.94,1.94,0,0,1-1.32.58H52.71L52,123.08l3.15.17q.5,0,.5-1V97.82H58Z"/><path class="cls-2" d="M77.82,110.35H72v2.79h5.07v2.26H72v1.21l1.23-.92a13.06,13.06,0,0,1,4.13,4.24l-1.74,1.59A12.69,12.69,0,0,0,72,117.31v8.13H69.63v-8a19.1,19.1,0,0,1-4.9,5.21L63,120.86a15,15,0,0,0,5.15-5.46H64.37v-2.26h5.27v-2.79H63.52v-2.27h4.22a13.22,13.22,0,0,0-2.13-3.81l2-.83a10.69,10.69,0,0,1,2.42,4.65h2a24.17,24.17,0,0,0,1.72-4.65l2.24.86a24.82,24.82,0,0,1-1.59,3.78h3.33Zm-.26-7.1H63.87V101h5.77v-3h2.45v3h5.48Zm13,6H87v16.15H84.63V109.29H81.23v3.5a20.54,20.54,0,0,1-3.75,12.47l-2.07-1.39q3.47-4.48,3.47-12.25V100.71a25.34,25.34,0,0,0,9.31-2.92l1.48,1.92a25.71,25.71,0,0,1-8.43,2.89V107h9.36Z"/></g></g></g></svg>