<svg xmlns="http://www.w3.org/2000/svg" viewBox="0 0 241.26 228.63"><defs><style>.cls-1{fill:#faa61a}.cls-2{fill:#fff}</style></defs><title>7</title><g id="Layer_2" data-name="Layer 2"><g id="Layer_1-2" data-name="Layer 1"><path id="_Rectangle_" data-name="&amp;lt;Rectangle&amp;gt;" class="cls-1" d="M0 0h241.26v228.63H0z"/><path class="cls-2" d="M39.16 31.18h40.25v9.14l-19 41.33h-14L64.8 41.76h-14l-.07 7.13H39.16z" id="_Group_" data-name="&amp;lt;Group&amp;gt;"/><path class="cls-2" d="M52.21 104a6.26 6.26 0 0 1 2.79 1.88 4.53 4.53 0 0 1 1 2.91 4.65 4.65 0 0 1-1 3 5 5 0 0 1-2.74 1.74 5.34 5.34 0 0 1 3.27 1.89 5.57 5.57 0 0 1 1.19 3.6 5.24 5.24 0 0 1-1 3.21 6.36 6.36 0 0 1-2.91 2.11 12.29 12.29 0 0 1-4.43.73H37.62v-21.76h10.33a12.35 12.35 0 0 1 4.26.69zm-2.71 7.41a2 2 0 0 0 .68-1.6 1.85 1.85 0 0 0-.68-1.53 2.79 2.79 0 0 0-1.86-.51H43.3V112h4.34a2.8 2.8 0 0 0 1.86-.62zM50 120a2 2 0 0 0 .87-1.74 1.89 1.89 0 0 0-.87-1.63 3.92 3.92 0 0 0-2.36-.57H43.3v4.56h4.34A4 4 0 0 0 50 120zm26.19-11.73V125h-5.52v-2.73a5.89 5.89 0 0 1-5.36 3 5.66 5.66 0 0 1-4.31-1.73 6.58 6.58 0 0 1-1.63-4.67v-10.6h5.52v9a3.21 3.21 0 0 0 .73 2.23 2.52 2.52 0 0 0 2 .81 2.87 2.87 0 0 0 2.29-1.07 4.19 4.19 0 0 0 .84-2.71v-8.28zm10.07 3.59a2.19 2.19 0 0 0-1.15.26.86.86 0 0 0-.43.79 1 1 0 0 0 .68.9 12.6 12.6 0 0 0 2.17.74 27.22 27.22 0 0 1 3 1 5.48 5.48 0 0 1 2.06 1.55 4.09 4.09 0 0 1 .87 2.71 4.66 4.66 0 0 1-2 4 8.48 8.48 0 0 1-5.13 1.44 13.75 13.75 0 0 1-4.09-.6 10.82 10.82 0 0 1-3.47-1.78l1.74-3.57a12.2 12.2 0 0 0 3 1.54 9.06 9.06 0 0 0 3 .54 2.68 2.68 0 0 0 1.29-.26.83.83 0 0 0 .48-.76 1.06 1.06 0 0 0-.7-1 13.2 13.2 0 0 0-2.19-.74 24.61 24.61 0 0 1-2.91-1 5.5 5.5 0 0 1-2-1.53 4 4 0 0 1-.85-2.67 4.7 4.7 0 0 1 1.92-4 8 8 0 0 1 5-1.44 13.47 13.47 0 0 1 7 2l-1.86 3.6a12.28 12.28 0 0 0-5.43-1.72zm14.96-10.49a3.13 3.13 0 0 1 0 4.23 3 3 0 0 1-4.19 0 3.14 3.14 0 0 1 0-4.23 3.07 3.07 0 0 1 4.19 0zm-4.79 6.9h5.49V125h-5.49zm25.19 1.52a6.5 6.5 0 0 1 1.66 4.68V125h-5.49v-9a3.14 3.14 0 0 0-.78-2.25 2.72 2.72 0 0 0-2.08-.82 3.18 3.18 0 0 0-2.25.9 3.65 3.65 0 0 0-1 2.29V125h-5.52v-16.73h5.52V111a6 6 0 0 1 2.31-2.2 6.84 6.84 0 0 1 3.24-.74 5.82 5.82 0 0 1 4.39 1.73zm19.08.71a9.49 9.49 0 0 1 2.2 6.63v1h-11.69a4 4 0 0 0 1.4 2.19 3.86 3.86 0 0 0 2.42.76 5.24 5.24 0 0 0 2.09-.43 5.93 5.93 0 0 0 1.84-1.27l2.88 2.88a8.49 8.49 0 0 1-3.15 2.22 10.85 10.85 0 0 1-4.17.76 10 10 0 0 1-4.71-1.05 7.32 7.32 0 0 1-3.08-3 9 9 0 0 1-1.07-4.46 9.26 9.26 0 0 1 1.08-4.54 7.5 7.5 0 0 1 3.07-3 9.52 9.52 0 0 1 4.59-1.07 8.08 8.08 0 0 1 6.3 2.38zm-3.16 4.68a3.23 3.23 0 0 0-.85-2.34 3.24 3.24 0 0 0-4.43 0 4.32 4.32 0 0 0-1.16 2.36zm14.04-3.32a2.19 2.19 0 0 0-1.15.26.86.86 0 0 0-.43.79 1 1 0 0 0 .68.9 12.6 12.6 0 0 0 2.17.74 27.22 27.22 0 0 1 3 1 5.48 5.48 0 0 1 2.06 1.55 4.09 4.09 0 0 1 .87 2.71 4.66 4.66 0 0 1-2 4 8.48 8.48 0 0 1-5.13 1.44 13.75 13.75 0 0 1-4.09-.6 10.82 10.82 0 0 1-3.47-1.78l1.74-3.57a12.2 12.2 0 0 0 3 1.54 9.06 9.06 0 0 0 3 .54 2.68 2.68 0 0 0 1.29-.26.83.83 0 0 0 .48-.76 1.06 1.06 0 0 0-.7-1 13.2 13.2 0 0 0-2.19-.74 24.61 24.61 0 0 1-2.91-1 5.5 5.5 0 0 1-2-1.53 4 4 0 0 1-.85-2.67 4.7 4.7 0 0 1 1.92-4 8 8 0 0 1 5-1.44 13.47 13.47 0 0 1 7 2l-1.86 3.6a12.28 12.28 0 0 0-5.43-1.72zm16.02 0a2.19 2.19 0 0 0-1.15.26.86.86 0 0 0-.43.79 1 1 0 0 0 .68.9 12.6 12.6 0 0 0 2.17.74 27.22 27.22 0 0 1 3 1 5.48 5.48 0 0 1 2.06 1.55 4.09 4.09 0 0 1 .87 2.71 4.66 4.66 0 0 1-2 4 8.48 8.48 0 0 1-5.13 1.44 13.75 13.75 0 0 1-4.09-.6 10.82 10.82 0 0 1-3.47-1.78l1.74-3.57a12.2 12.2 0 0 0 3 1.54 9.06 9.06 0 0 0 3 .54 2.68 2.68 0 0 0 1.29-.26.83.83 0 0 0 .48-.76 1.06 1.06 0 0 0-.7-1 13.2 13.2 0 0 0-2.19-.74 24.61 24.61 0 0 1-2.91-1 5.5 5.5 0 0 1-2-1.53 4 4 0 0 1-.85-2.67 4.7 4.7 0 0 1 1.92-4 8 8 0 0 1 5-1.44 13.47 13.47 0 0 1 7 2l-1.86 3.6a12.28 12.28 0 0 0-5.43-1.72zM52.32 146.35a7.2 7.2 0 0 1 2.74 3 11 11 0 0 1 0 9 7 7 0 0 1-2.7 3 7.69 7.69 0 0 1-4 1.05 6.67 6.67 0 0 1-2.87-.6 6 6 0 0 1-2.19-1.75v8.18h-5.52v-22.76h5.52v2.17a5.92 5.92 0 0 1 4.93-2.36 7.75 7.75 0 0 1 4.09 1.07zm-2.84 10.46a4.39 4.39 0 0 0 1-3 4.45 4.45 0 0 0-1-3 3.3 3.3 0 0 0-2.62-1.16 3.22 3.22 0 0 0-2.57 1.16 4.49 4.49 0 0 0-1 3 4.43 4.43 0 0 0 1 3 3.24 3.24 0 0 0 2.57 1.19 3.32 3.32 0 0 0 2.62-1.19zM59 139.24h5.52v23H59zm22.89 7.61a5.59 5.59 0 0 1 2 4.48v10.91h-5.47v-1.89a6 6 0 0 1-5.05 2.14 5.89 5.89 0 0 1-4.2-1.44 5 5 0 0 1-1.53-3.8 4.51 4.51 0 0 1 1.66-3.72 7.57 7.57 0 0 1 4.7-1.37h4.37V152a2.24 2.24 0 0 0-.82-1.86 3.75 3.75 0 0 0-2.37-.65 9.56 9.56 0 0 0-2.37.34 14.06 14.06 0 0 0-2.65 1l-1.52-3.72a21.86 21.86 0 0 1 3.92-1.38 16.62 16.62 0 0 1 3.89-.45 8.22 8.22 0 0 1 5.44 1.57zm-4.65 11.28a2.62 2.62 0 0 0 1.18-1.57v-1.46h-3.29q-2.33 0-2.33 1.74a1.71 1.71 0 0 0 .6 1.38 2.48 2.48 0 0 0 1.66.51 3.89 3.89 0 0 0 2.18-.6zM103 147a6.5 6.5 0 0 1 1.66 4.68v10.57h-5.44v-9a3.14 3.14 0 0 0-.78-2.25 2.72 2.72 0 0 0-2.08-.82 3.18 3.18 0 0 0-2.25.9 3.65 3.65 0 0 0-1 2.29v8.87h-5.55v-16.77h5.52v2.73a6 6 0 0 1 2.31-2.2 6.84 6.84 0 0 1 3.24-.74A5.82 5.82 0 0 1 103 147zm11.32 2.06a2.19 2.19 0 0 0-1.15.26.86.86 0 0 0-.43.79 1 1 0 0 0 .68.9 12.6 12.6 0 0 0 2.17.74 27.22 27.22 0 0 1 3 1 5.48 5.48 0 0 1 2.06 1.55 4.09 4.09 0 0 1 .87 2.71 4.66 4.66 0 0 1-2 4 8.48 8.48 0 0 1-5.13 1.44 13.75 13.75 0 0 1-4.09-.6 10.82 10.82 0 0 1-3.47-1.78l1.74-3.57a12.2 12.2 0 0 0 3 1.54 9.06 9.06 0 0 0 3 .54 2.68 2.68 0 0 0 1.29-.26.83.83 0 0 0 .48-.76 1.06 1.06 0 0 0-.7-1 13.2 13.2 0 0 0-2.19-.74 24.61 24.61 0 0 1-2.91-1 5.5 5.5 0 0 1-2-1.53 4 4 0 0 1-.85-2.67 4.7 4.7 0 0 1 1.92-4 8 8 0 0 1 5-1.44 13.47 13.47 0 0 1 7 2l-1.86 3.6a12.28 12.28 0 0 0-5.43-1.72zm14.78-3.59h5.67l3.5 11.66 3.53-11.66h5.52L141 162.24h-5.67zm25.7 3.59a2.19 2.19 0 0 0-1.15.26.86.86 0 0 0-.43.79 1 1 0 0 0 .68.9 12.6 12.6 0 0 0 2.17.74 27.22 27.22 0 0 1 3 1 5.48 5.48 0 0 1 2.06 1.55 4.09 4.09 0 0 1 .87 2.71 4.66 4.66 0 0 1-2 4 8.48 8.48 0 0 1-5.13 1.44 13.75 13.75 0 0 1-4.09-.6 10.82 10.82 0 0 1-3.47-1.78l1.74-3.57a12.2 12.2 0 0 0 3 1.54 9.06 9.06 0 0 0 3 .54 2.68 2.68 0 0 0 1.29-.26.83.83 0 0 0 .48-.76 1.06 1.06 0 0 0-.7-1 13.2 13.2 0 0 0-2.19-.74 24.61 24.61 0 0 1-2.91-1 5.5 5.5 0 0 1-2-1.53 4 4 0 0 1-.85-2.67 4.7 4.7 0 0 1 1.92-4 8 8 0 0 1 5-1.44 13.47 13.47 0 0 1 7 2l-1.86 3.6a12.28 12.28 0 0 0-5.43-1.72zm-90.42 35.13a6.53 6.53 0 0 1 1.62 4.68v10.57h-5.5v-9a3.23 3.23 0 0 0-.74-2.25 2.58 2.58 0 0 0-2-.82 2.92 2.92 0 0 0-2.31 1.07 4.13 4.13 0 0 0-.85 2.71v8.28h-5.54v-9a3.23 3.23 0 0 0-.74-2.25 2.58 2.58 0 0 0-2-.82 3 3 0 0 0-2.32 1.09 4.09 4.09 0 0 0-.87 2.71v8.28h-5.51v-16.77h5.49v2.76a5.93 5.93 0 0 1 2.25-2.22 6.54 6.54 0 0 1 3.21-.76 6.08 6.08 0 0 1 3.5 1 5.4 5.4 0 0 1 2.08 2.76 6 6 0 0 1 2.31-2.81 6.53 6.53 0 0 1 3.55-.95 5.74 5.74 0 0 1 4.37 1.74zm17.98-.64a7.82 7.82 0 0 1 3.22 3 9.38 9.38 0 0 1 0 9 7.81 7.81 0 0 1-3.22 3 11.33 11.33 0 0 1-9.61 0 7.71 7.71 0 0 1-3.21-3 9.5 9.5 0 0 1 0-9 7.72 7.72 0 0 1 3.21-3 11.33 11.33 0 0 1 9.61 0zm-7.41 4.54a5.1 5.1 0 0 0 0 6 3.28 3.28 0 0 0 2.6 1.15 3.31 3.31 0 0 0 2.63-1.15 4.48 4.48 0 0 0 1-3 4.4 4.4 0 0 0-1-3 3.32 3.32 0 0 0-2.62-1.15 3.28 3.28 0 0 0-2.61 1.15zm31.52-11.65v23H101v-2.17a5.68 5.68 0 0 1-2.12 1.78 6.45 6.45 0 0 1-2.84.6 7.66 7.66 0 0 1-4.09-1.08 7.3 7.3 0 0 1-2.74-3.05 10.09 10.09 0 0 1-1-4.54 9.85 9.85 0 0 1 1-4.46 7.11 7.11 0 0 1 2.7-3 7.62 7.62 0 0 1 4-1.05 6.6 6.6 0 0 1 2.9.62 6.13 6.13 0 0 1 2.19 1.77v-8.43zM100 194.15a5.12 5.12 0 0 0 0-6.06 3.53 3.53 0 0 0-5.22 0 5 5 0 0 0 0 6 3.3 3.3 0 0 0 2.62 1.16 3.26 3.26 0 0 0 2.6-1.1zm24.52-9.25a9.49 9.49 0 0 1 2.2 6.63v1H115a4 4 0 0 0 1.4 2.19 3.86 3.86 0 0 0 2.42.76 5.23 5.23 0 0 0 2.09-.43 5.91 5.91 0 0 0 1.84-1.27l2.88 2.88a8.49 8.49 0 0 1-3.15 2.22 10.85 10.85 0 0 1-4.17.76 10 10 0 0 1-4.71-1.05 7.32 7.32 0 0 1-3.08-3 9 9 0 0 1-1.07-4.46 9.25 9.25 0 0 1 1.08-4.54 7.49 7.49 0 0 1 3.07-3 9.52 9.52 0 0 1 4.59-1.07 8.08 8.08 0 0 1 6.33 2.38zm-3.16 4.68a3.23 3.23 0 0 0-.85-2.34 3.24 3.24 0 0 0-4.43 0 4.31 4.31 0 0 0-1.16 2.36zm8.33-13.14h5.52v23h-5.52zm15.75 9.82a2.2 2.2 0 0 0-1.15.26.86.86 0 0 0-.43.79 1 1 0 0 0 .68.9 12.52 12.52 0 0 0 2.17.74 27.2 27.2 0 0 1 3 1 5.47 5.47 0 0 1 2.06 1.55 4.09 4.09 0 0 1 .87 2.71 4.66 4.66 0 0 1-2 4 8.48 8.48 0 0 1-5.13 1.44 13.78 13.78 0 0 1-4.09-.6 10.82 10.82 0 0 1-3.42-1.75l1.74-3.56a12.23 12.23 0 0 0 3 1.53 9 9 0 0 0 3 .54 2.68 2.68 0 0 0 1.29-.26.83.83 0 0 0 .48-.76 1.06 1.06 0 0 0-.7-1 13.29 13.29 0 0 0-2.19-.74 24.45 24.45 0 0 1-2.91-1 5.49 5.49 0 0 1-2-1.54 4 4 0 0 1-.85-2.67 4.7 4.7 0 0 1 1.92-4 8 8 0 0 1 5-1.44 13.47 13.47 0 0 1 7 2l-1.86 3.6a12.29 12.29 0 0 0-5.48-1.74z" id="_Group_2" data-name="&amp;lt;Group&amp;gt;"/></g></g></svg>