<svg xmlns="http://www.w3.org/2000/svg" viewBox="0 0 241.26 228.63"><defs><style>.cls-1{fill:#faa61a;}.cls-2{fill:#fff;}</style></defs><title>7CH</title><g id="Layer_2" data-name="Layer 2"><g id="Layer_1-2" data-name="Layer 1"><rect id="_Rectangle_" data-name="&lt;Rectangle&gt;" class="cls-1" width="241.26" height="228.63"/><g id="_Group_" data-name="&lt;Group&gt;"><path class="cls-2" d="M39.16,31.18H79.41v9.14l-19,41.33h-14L64.8,41.76h-14l-.07,7.13H39.16Z"/></g><g id="_Group_2" data-name="&lt;Group&gt;"><path class="cls-2" d="M49.34,123.18l-6.07,3.34-1.39-2a1.79,1.79,0,0,0,.47-1.3V109.95H37.82v-2.27h6.87v15.47l4.65-2.54Zm-3.77-19.56-2,1.48a14,14,0,0,0-4-4.68L41.34,99A13.88,13.88,0,0,1,45.57,103.62Zm19,7.1H57.34v16.36H55V110.72H47.76v-2.27H55v-9.2h2.36v9.2h7.22Z"/><path class="cls-2" d="M86.13,121q-1.2,6-3.25,6-1.59,0-3.52-2.08a15.89,15.89,0,0,1-3-4.43,29.89,29.89,0,0,1-6.66,3.84l-1.83-2a27.67,27.67,0,0,0,7.57-4.19,39.15,39.15,0,0,1-2-8.29l-4.37.61-.3-2.23,4.36-.65q-.29-5.81-.24-8.37h2.45q0,1,0,2,0,2.76.3,6l9.14-1.39.32,2.3-9.2,1.36a35.69,35.69,0,0,0,1.51,7A28.83,28.83,0,0,0,82,110.07l1.86,1.36a27,27,0,0,1-5.52,7.43,12.75,12.75,0,0,0,2.39,3.91q1.45,1.58,1.89,1.58.21,0,1.24-4.22Zm-3.87-16.35-1.89,1.53a11.21,11.21,0,0,0-4.5-4.5l1.74-1.45A12.64,12.64,0,0,1,82.26,104.66Zm6.36,15.79H86.27V102.91h2.35Zm5.71,3.84q0,2.72-3.5,2.66l-2,0L88,124.54l3.22.09a.76.76,0,0,0,.71-.8V99.15h2.36Z"/><path class="cls-2" d="M115.24,117.7l-2,1.42q-1.82-3.89-3.8-5.24V127.2H107.1V115q-1.38,3-5.77,6.95l-2.16-1.57q6-4.78,7.84-10.35h-5.92v-2.27h6v-3.91a55.66,55.66,0,0,1-5.59.68l-1-2.13q8.1-.56,12.34-2.82l1.42,1.76a24.38,24.38,0,0,1-4.86,2v4.44h5.27V110h-5.27v2.22l.83-.59A13.59,13.59,0,0,1,115.24,117.7Zm10,7.64h-2.36v-3.09h-4.95v3.09h-2.36V102.09h9.67ZM122.87,120V104.36h-4.95V120Z"/><path class="cls-2" d="M140.64,115.61l-2,1.27a12.51,12.51,0,0,0-1.8-3.44v13.73h-2.39V114.93a16,16,0,0,1-3.07,5.56l-1.89-1.65a23,23,0,0,0,4.93-11.09h-4v-2.26h3.94v-6h2.45v6h3.35v2.26h-3.35V111l.68-.33A18.51,18.51,0,0,1,140.64,115.61ZM158,125.16l-1.24,1.92q-6.71-1.21-8.78-6.1-2.13,4.31-8.64,6.13l-1.3-2q5.48-1.26,7.43-4.18h-6.1v-2.27h7.07l.39-1.74h-6v-9.64h14.23v9.64h-6a9,9,0,0,1-.35,1.74h7.81v2.27H150.4Q152.64,124.09,158,125.16Zm-.91-20.53H153v2h-2.36v-2h-5.36v2H143v-2h-4.12v-2.25H143v-3h2.36v3h5.36v-3H153v3h4.09Zm-4.47,6.24v-1.36h-9.32v1.36Zm0,3.75v-1.48h-9.32v1.48Z"/><path class="cls-2" d="M188.77,120.66a20.21,20.21,0,0,1-1.17,4.71q-.69,1.58-2,1.58-2.1,0-5.06-4.69t-4.06-14.84H161.82v-2.27h14.5q-.14-1.35-.38-5.89l2.45-.09q.18,4.25.38,6h8.93v2.27H179A39,39,0,0,0,180.5,116a21.19,21.19,0,0,0,2.71,6.08q1.54,2.17,2.1,2.17.71,0,1.09-4.59Zm-11.46.5-14.14,3.57-.88-2.21,6.33-1.54v-7.42h-4.93v-2.25h12.09v2.25H171v6.77l6.16-1.44Zm8.89-18L184.54,105a9.88,9.88,0,0,0-5.46-3.16l1.86-1.77A9.5,9.5,0,0,1,186.2,103.18Z"/></g></g></g></svg>