<svg xmlns="http://www.w3.org/2000/svg" viewBox="0 0 241.26 228.63"><defs><style>.cls-1{fill:#f68b1f;}.cls-2{fill:#fff;}</style></defs><title>8CH</title><g id="Layer_2" data-name="Layer 2"><g id="Layer_1-2" data-name="Layer 1"><rect id="_Rectangle_" data-name="&lt;Rectangle&gt;" class="cls-1" width="241.26" height="228.63"/><g id="_Group_" data-name="&lt;Group&gt;"><path class="cls-2" d="M71.62,34.31a11.93,11.93,0,0,1,4.82,10,11.58,11.58,0,0,1-1.62,5.94,12.41,12.41,0,0,1-4.36,4.43,14.72,14.72,0,0,1,6.26,5.22,13.3,13.3,0,0,1,2.3,7.6,12.75,12.75,0,0,1-2.48,7.81,15.64,15.64,0,0,1-7.09,5.15,29.38,29.38,0,0,1-10.73,1.8A29.08,29.08,0,0,1,48,80.42a16.13,16.13,0,0,1-7.09-5.08,12.21,12.21,0,0,1-2.52-7.67,12.92,12.92,0,0,1,2.52-7.74,15.76,15.76,0,0,1,6.7-5.29A14.07,14.07,0,0,1,42.82,50a11.23,11.23,0,0,1-1.8-6,11.83,11.83,0,0,1,2.16-7.06,13.61,13.61,0,0,1,6.16-4.64,24.7,24.7,0,0,1,9.32-1.62Q66.8,30.6,71.62,34.31ZM52.87,61.67a6.28,6.28,0,0,0,0,9.29,9.28,9.28,0,0,0,5.87,1.62A9.45,9.45,0,0,0,64.64,71a6.21,6.21,0,0,0,0-9.29A9.45,9.45,0,0,0,58.73,60,9.28,9.28,0,0,0,52.87,61.67Zm.86-20.77A5,5,0,0,0,52,45a4.81,4.81,0,0,0,1.76,4,7.86,7.86,0,0,0,5,1.4,7.84,7.84,0,0,0,5-1.4,4.86,4.86,0,0,0,1.73-4,5,5,0,0,0-1.73-4.1,7.7,7.7,0,0,0-5-1.44A7.73,7.73,0,0,0,53.73,40.9Z"/></g><g id="_Group_2" data-name="&lt;Group&gt;"><path class="cls-2" d="M53.61,102.47H37.7v-2.23H53.61Zm12.08,23.31a15.87,15.87,0,0,1-2.23.74A19,19,0,0,0,63,124q-1.53.44-9.58,2.09l-.92-1.86h-.06a2.78,2.78,0,0,1-.77,1.54,2.39,2.39,0,0,1-1.7.73q-1.05,0-2.46,0l-.71-2.1a6.49,6.49,0,0,1,1.23.06,8.23,8.23,0,0,0,.89.09,1.39,1.39,0,0,0,1.1-.33,2.6,2.6,0,0,0,.27-1.46v-4.57a5.64,5.64,0,0,1-2.38-.32,1.64,1.64,0,0,1-1.08-1.15q-.17-.77-.42-3.21l-1.44,0a6.29,6.29,0,0,1-.69,3.22,4,4,0,0,1-2.4,2.08v.06h7.78q0,.7,0,2.12H46.48v4.18H44.3V121H41.55v-2.12l-.65-1h-.06V127H38.64V111.25H52.46v12.52q5.15-.85,5.42-.92V117.2H54.09V105.63h3.78V99.43l2.21,0v6.18H63.9V117.2H60.12v5.36q.18-.06,1.1-.22a5,5,0,0,0,1.15-.28q-.08-.12-.43-1a5,5,0,0,0-.84-1.4l2-.71A14.53,14.53,0,0,1,65.69,125.78ZM51,109.92H40.21v-6.05H51Zm-8.16,3.62h-2V117A3.23,3.23,0,0,0,42.85,113.53Zm5.86-5.74V106H42.47v1.76Zm1.59,8.31v-2.57h-1.8v2.15a.54.54,0,0,0,.26.26,4.29,4.29,0,0,0,.61.08Zm7.58-1.21v-7h-1.6v7Zm3.94,0v-7l-1.73,0v7Z"/><path class="cls-2" d="M75.47,107.18q-.86,2.68-4.72,6.39l-1.83-1.67A19,19,0,0,0,73.76,106Zm-.2-4.18-1.73,1.83a12.61,12.61,0,0,0-4-3.72L71,99.68A10.22,10.22,0,0,1,75.27,103Zm8.16,12.81q0,6.46-3.34,8.65t-9.41,2.45l-1.09-2.27q4-.24,5.56-.49a8.41,8.41,0,0,0,3.23-1.33,4.86,4.86,0,0,0,2.13-2.51,20.51,20.51,0,0,0,.67-4.49Zm12.4-4.22-1.6,2a17.66,17.66,0,0,1-9.16-5.39,8.84,8.84,0,0,1-3.13,2.75,12.91,12.91,0,0,1-4.46,1.62v0H90v9.67H87.67v-7.42H77v7.42H74.62v-9.67H76l-1-1.33a20.57,20.57,0,0,0,6.32-2.6,8.11,8.11,0,0,0,3-4.2l2.18.5-.41,1.21a11.13,11.13,0,0,0,3.29,3A24.32,24.32,0,0,0,95.83,111.58Zm-2.36-10.1a8.53,8.53,0,0,1-.22,2.59,12.15,12.15,0,0,1-1.67,3.42l-2.1-1.15a7.8,7.8,0,0,0,1.53-2.6H81.95a14.4,14.4,0,0,1-4.56,4.62l-1.59-1.83a12.53,12.53,0,0,0,5.46-7.19l2.07.74q-.14.45-.53,1.41ZM93.37,125l-1.18,2.17a28.11,28.11,0,0,0-9.63-3.65l1.07-2A29.41,29.41,0,0,1,93.37,125Z"/></g></g></g></svg>